/* XPM */
static char *_0ce04d4c8484367e6bed9f5eec5a307[] = {
/* columns rows colors chars-per-pixel */
"32 32 109 2 ",
"   c #01128E",
".  c #021691",
"X  c #051B95",
"o  c #0B1990",
"O  c #061E9A",
"+  c #07219D",
"@  c #09229D",
"#  c #162C9F",
"$  c #0625A4",
"%  c #0925A2",
"&  c #0B28A6",
"*  c #072AAC",
"=  c #0B2CAB",
"-  c #102DA6",
";  c #112FA8",
":  c #1C33A3",
">  c #1A35AB",
",  c #072EB3",
"<  c #0B2FB1",
"1  c #0730B6",
"2  c #0B32B5",
"3  c #0731B9",
"4  c #0A35BC",
"5  c #2339A7",
"6  c #3441A3",
"7  c #3846A7",
"8  c #3B4AAA",
"9  c #324FBB",
"0  c #4150AD",
"q  c #4659B5",
"w  c #5564B7",
"e  c #5A64B3",
"r  c #6372BF",
"t  c #0A37C0",
"y  c #0A39C3",
"u  c #0A3BC8",
"i  c #0E41CE",
"p  c #1141CC",
"a  c #0F45D5",
"s  c #1247D6",
"d  c #1549D6",
"f  c #114BDF",
"g  c #3456C4",
"h  c #2152DA",
"j  c #144EE1",
"k  c #1650E3",
"l  c #1953E6",
"z  c #1C56E9",
"x  c #1F59EB",
"c  c #225CED",
"v  c #245EF0",
"b  c #2D63EB",
"n  c #3468EC",
"m  c #3F70EC",
"M  c #2661F2",
"N  c #2A64F4",
"B  c #2E68F8",
"V  c #3369F0",
"C  c #3E72F4",
"Z  c #435FC3",
"A  c #4361C5",
"S  c #556BC2",
"D  c #536FCD",
"F  c #717BC0",
"G  c #4676EE",
"H  c #4978EE",
"J  c #4B7BF3",
"K  c #7684C8",
"L  c #7E8BCC",
"P  c #7E8ED0",
"I  c #7F91D4",
"U  c #5A80E5",
"Y  c #628CF3",
"T  c #6A92F5",
"R  c #7196F2",
"E  c #7599F3",
"W  c #838ECC",
"Q  c #8591CD",
"!  c #8093D6",
"~  c #8095D9",
"^  c #A1A7D4",
"/  c #AFB7DF",
"(  c #86A6F5",
")  c #88A7F6",
"_  c #89A8F7",
"`  c #8AA9F8",
"'  c #90ADF4",
"]  c #96B2F8",
"[  c #AEB9E3",
"{  c #A5BCF7",
"}  c #B7C1E6",
"|  c #BEC5E6",
" . c #BCC6EA",
".. c #BDCEF9",
"X. c #C4C9E6",
"o. c #C7CCE8",
"O. c #CED2EB",
"+. c #D4D9EE",
"@. c #C1D1FA",
"#. c #D3DEFB",
"$. c #DBE0F2",
"%. c #D6E1FD",
"&. c #E6E8F4",
"*. c #E8EAF5",
"=. c #E4EBFC",
"-. c #F2F4FB",
";. c #F7F9FE",
":. c #FFFFFF",
">. c None",
/* pixels */
">.>.>.>.>.>.>.>.>.>.>.>.B N N N v N v v >.>.>.>.>.>.>.>.>.>.>.>.",
">.>.>.>.>.>.>.>.>.B B N N N N N N v M v v v v >.>.>.>.>.>.>.>.>.",
">.>.>.>.>.>.>.B B N B N N N N v M M v v v c c c c >.>.>.>.>.>.>.",
">.>.>.>.>.>.B B N B N N N N v N M v v v v c c c x x >.>.>.>.>.>.",
">.>.>.>.>.B B N N N N M M M M M v v v c c x x x c x z >.>.>.>.>.",
">.>.>.>.B B N B N N N N b M M v v v v v v x x x z z z z >.>.>.>.",
">.>.>.B B B B N N M M M v v c v x x c x x x x x z z z l l >.>.>.",
">.>.B B N N N N N Y ` _ _ _ ( ( _ ) ( ( ( G x l z z z l l l >.>.",
">.>.B N N N N M J =.:.:.:.:.:.:.:.:.:.:.:. .h z z l l l l k >.>.",
">.B N B N N N N C %.:.:.;.-.-.-.-.-.-.:.:.O.> d z l l l k k k >.",
">.N B N N N N M v T -.:.*.e 6 7 7 7 8 X.:.O.- & d z k l k k k >.",
">.B N N N M M M M M ] :.:.^ o     . . w L r @ O = d k k k k j >.",
"B N N M M N M M v v n @.:.;.F . . X X O O O @ % % = d k j j j j ",
"N N N N M M M v v v v J =.:.&.0 . X X + O @ % % & & < s j j f j ",
"N N M M M M v v v v c x E ;.:.X.: X + + @ % % % & = = 2 d j f f ",
"N M N M M v v v v c x x c { :.:.Q X @ + @ % & & & = = < 2 s f f ",
"N M M v v v v c c c x c c { :.:.Q + + @ % % & = = = = < 2 4 a f ",
"M M M v v v v v c x c z R ;.:.o.5 + @ % & & & = = = < 2 2 2 y a ",
"M M v v v c v x x c z H =.:.*.q O % & & = = ; = = < 2 2 2 4 4 y ",
"M M v v c c c x c z b ..:.;.K + @ % % % S } [ 9 , < 2 2 4 4 4 4 ",
">.v v v c x c c z z ' :.:./ : & - - ; = P :.-.A , 2 2 4 4 4 y >.",
">.v c c c c x x z Y -.:.:.+.| | |  .|  .$.:.;.A , 2 4 4 4 y y >.",
">.v c c c x x l n #.:.:.:.:.:.:.:.:.:.:.:.:.-.A 1 4 4 y y y y >.",
">.>.c c c x x l G =.:.:.:.:.:.:.:.:.:.:.:.:.*.g 2 4 4 y y y >.>.",
">.>.c x x x z z x U W P W P I I I I I ! ~ ~ D 4 4 4 t t u u >.>.",
">.>.>.x x z z z l l u $ % $ $ * * * , , 1 2 3 4 4 y t u u >.>.>.",
">.>.>.>.z z z l l l l p = & = = = < < 2 2 4 4 4 y y u u >.>.>.>.",
">.>.>.>.>.z z l l l k k u = = = < < 2 2 4 4 4 y y u u >.>.>.>.>.",
">.>.>.>.>.>.l l k l k k k p < < 2 2 4 4 4 y y y y u >.>.>.>.>.>.",
">.>.>.>.>.>.>.l l k k j j j p 2 2 2 2 4 4 y y y u >.>.>.>.>.>.>.",
">.>.>.>.>.>.>.>.>.k k k j f f i 4 4 4 4 y y y >.>.>.>.>.>.>.>.>.",
">.>.>.>.>.>.>.>.>.>.>.>.f j f f i 4 4 y >.>.>.>.>.>.>.>.>.>.>.>."
};
