/* XPM */
static char *_bc6d3eca6b6406efb46a5f3015c237f[] = {
/* columns rows colors chars-per-pixel */
"64 64 143 2 ",
"   c #000D8A",
".  c #02138E",
"X  c #031691",
"o  c #051A94",
"O  c #061E99",
"+  c #081F9B",
"@  c #101F94",
"#  c #0C2097",
"$  c #07219E",
"%  c #09229D",
"&  c #192E9F",
"*  c #23349F",
"=  c #2C399F",
"-  c #0724A3",
";  c #0925A2",
":  c #0A28A6",
">  c #0627A8",
",  c #0629AB",
"<  c #0A2CAB",
"1  c #132AA0",
"2  c #192FA2",
"3  c #112FA9",
"4  c #1B30A2",
"5  c #1635AE",
"6  c #1837AE",
"7  c #062EB3",
"8  c #0A2FB1",
"9  c #0A32B5",
"0  c #0A35BC",
"q  c #1036BB",
"w  c #1239BD",
"e  c #2038A7",
"r  c #213BAC",
"t  c #2A3FAA",
"y  c #223FB1",
"u  c #3348AE",
"i  c #3C4DAD",
"p  c #2241B5",
"a  c #2245BB",
"s  c #3451BB",
"d  c #4956AF",
"f  c #525CAF",
"g  c #4E5FB7",
"h  c #4355B3",
"j  c #535EB1",
"k  c #5461B4",
"l  c #5162B9",
"z  c #6673BE",
"x  c #0A37C0",
"c  c #0A39C3",
"v  c #093CC8",
"b  c #1039C0",
"n  c #1343CF",
"m  c #0E43D1",
"M  c #0E47DA",
"N  c #0F49DC",
"B  c #1244D0",
"V  c #1F4DD3",
"C  c #114BDE",
"Z  c #3254C3",
"A  c #144EE1",
"S  c #1650E3",
"D  c #1953E6",
"F  c #1C56E8",
"G  c #1E58EA",
"H  c #225CED",
"J  c #255FF0",
"K  c #2B61EC",
"L  c #3167ED",
"P  c #3368EE",
"I  c #3B6DEC",
"U  c #2660F1",
"Y  c #2A64F5",
"T  c #2E68F8",
"R  c #366CF2",
"E  c #3C70F3",
"W  c #5572CE",
"Q  c #5F79CF",
"!  c #6A76C0",
"~  c #647BCD",
"^  c #647DD0",
"/  c #4475EE",
"(  c #4B79ED",
")  c #507DEE",
"_  c #4375F3",
"`  c #4B7AF0",
"'  c #7280C6",
"]  c #7983C5",
"[  c #7D8FD2",
"{  c #5B83EC",
"}  c #5C87F2",
"|  c #5E89F6",
" . c #5583F5",
".. c #6089EF",
"X. c #7A96E6",
"o. c #658EF3",
"O. c #6790F6",
"+. c #6C92F1",
"@. c #7297F3",
"#. c #7A9DF2",
"$. c #838FCD",
"%. c #8F9BD3",
"&. c #919DD5",
"*. c #919FD8",
"=. c #9BA3D5",
"-. c #94A3DA",
";. c #A5ADDA",
":. c #AEB4DC",
">. c #84A4F7",
",. c #8BA9F4",
"<. c #92AEF6",
"1. c #9AB3F6",
"2. c #B6BDE1",
"3. c #A0B9F7",
"4. c #A9BFF7",
"5. c #A2BBF9",
"6. c #BCC2E3",
"7. c #B0C5F9",
"8. c #BCCDFA",
"9. c #C1C7E6",
"0. c #C6C9E4",
"q. c #C2CCED",
"w. c #CBCFE8",
"e. c #CDD3ED",
"r. c #D2D6ED",
"t. c #D6DAEE",
"y. c #CCD9FB",
"u. c #C5D4F9",
"i. c #DADEF1",
"p. c #D1DDFB",
"a. c #DBE0F3",
"s. c #D7E1FC",
"d. c #D9E2FC",
"f. c #E1E5F4",
"g. c #E6E8F5",
"h. c #EAECF7",
"j. c #E3EBFD",
"k. c #E9EFFE",
"l. c #EEF2FC",
"z. c #F1F4FC",
"x. c #F7F8FD",
"c. c #FFFFFF",
"v. c None",
/* pixels */
"v.v.v.v.v.v.v.v.v.v.v.v.v.v.v.v.v.v.v.v.v.v.v.v.v.v.Y Y Y Y Y Y Y U U Y U Y v.v.v.v.v.v.v.v.v.v.v.v.v.v.v.v.v.v.v.v.v.v.v.v.v.v.",
"v.v.v.v.v.v.v.v.v.v.v.v.v.v.v.v.v.v.v.v.v.v.Y T T Y Y Y Y Y Y U Y U Y U U J J U J J v.v.v.v.v.v.v.v.v.v.v.v.v.v.v.v.v.v.v.v.v.v.",
"v.v.v.v.v.v.v.v.v.v.v.v.v.v.v.v.v.v.v.v.T Y T T Y T Y Y Y Y Y Y U Y J U U U U J J J J J v.v.v.v.v.v.v.v.v.v.v.v.v.v.v.v.v.v.v.v.",
"v.v.v.v.v.v.v.v.v.v.v.v.v.v.v.v.v.T T T Y T Y Y Y Y Y Y U Y U U Y J U U U U J J J U H H J H H v.v.v.v.v.v.v.v.v.v.v.v.v.v.v.v.v.",
"v.v.v.v.v.v.v.v.v.v.v.v.v.v.v.v.T T Y T Y T Y Y Y Y Y U Y U U Y U U U J U J J J J H H H H H H H v.v.v.v.v.v.v.v.v.v.v.v.v.v.v.v.",
"v.v.v.v.v.v.v.v.v.v.v.v.v.v.T T T T T Y T Y Y Y Y Y Y Y U Y Y U U U U U J J J J J H H J H H H G G H v.v.v.v.v.v.v.v.v.v.v.v.v.v.",
"v.v.v.v.v.v.v.v.v.v.v.v.v.T T T T Y Y T Y Y Y Y Y U Y U Y Y J U U U U J J J H J H J H H H H G H H H G v.v.v.v.v.v.v.v.v.v.v.v.v.",
"v.v.v.v.v.v.v.v.v.v.v.T T T T T T Y T Y Y Y Y Y Y Y U Y U U U U U U J J J J J H H H H H H H H H G G G G G v.v.v.v.v.v.v.v.v.v.v.",
"v.v.v.v.v.v.v.v.v.v.T T T T T Y Y T Y Y Y Y Y Y Y U Y U U U U U J J U J J J H J H H H H H G H G G H G G G G v.v.v.v.v.v.v.v.v.v.",
"v.v.v.v.v.v.v.v.v.T T T Y T T Y T Y Y Y Y Y Y U U Y U U U J U U J J J H J H H H H H H H G H G G G F G G F F F v.v.v.v.v.v.v.v.v.",
"v.v.v.v.v.v.v.v.T T T T T Y Y T Y Y Y Y Y Y U Y Y U U U U U U J J U J H H J H H H G H G H G G G F G G F F F F F v.v.v.v.v.v.v.v.",
"v.v.v.v.v.v.v.T T T T T T Y T Y Y Y Y Y Y Y Y U Y U U U U U J U J H U H H H H H H H H G G H G G G G G F F F F D F v.v.v.v.v.v.v.",
"v.v.v.v.v.v.v.T T T T Y Y Y Y T Y Y U Y Y U Y U U U U U U J U J J H H H H H H H H G H G G G F G G F G F F F D F D v.v.v.v.v.v.v.",
"v.v.v.v.v.v.T T T T Y T T Y Y Y Y Y Y Y U Y U U U U U J J J H H J H H H H H G H G G H G G G G G F F F F F F F D F F v.v.v.v.v.v.",
"v.v.v.v.v.T T Y Y T T Y Y Y Y Y Y Y Y T R R R R R R R R R P P P P P P P P P P P P K G H G G G G F F F F F D F D D D D v.v.v.v.v.",
"v.v.v.v.v.T T T T Y T Y Y Y Y Y Y U | 8.d.d.s.d.d.d.d.s.d.d.d.a.d.d.d.d.s.s.s.s.s.p.,.U F G F F F F F F F D D D D D D v.v.v.v.v.",
"v.v.v.v.T T Y T Y T Y Y Y Y Y U U _ d.c.c.c.c.c.c.c.c.c.c.c.c.c.c.c.c.c.c.c.c.c.c.c.c.X.S G G F D F F D F D D D D S D S v.v.v.v.",
"v.v.v.T T T T Y T Y Y Y Y Y Y Y U O.x.c.c.c.c.c.c.c.c.c.c.c.c.c.c.c.c.c.c.c.c.c.c.c.c.:.w D F F F F F D D D D D D S D S S v.v.v.",
"v.v.v.T T Y Y T Y Y Y Y Y U Y U U  .z.c.c.c.c.c.c.c.c.c.c.c.c.c.c.c.c.c.c.c.c.c.c.c.c.2.# q D F F F D D D F D D D D S S S v.v.v.",
"v.v.v.T Y T Y Y Y Y Y Y Y Y U Y U Y 5.c.c.c.c.c.c.c.x.c.c.x.c.x.x.c.c.c.x.c.c.c.c.c.c.2.# # q D F D F D D D S S S S S S S v.v.v.",
"v.v.T T T T Y Y Y Y Y Y Y U Y Y U U E y.c.c.c.c.c.0.f f f f j j j j k k k j ;.c.c.c.c.2.% # % q S D D D D D S D S S S S S S v.v.",
"v.v.Y Y Y Y Y Y Y Y J Y U Y J U U J J } k.c.c.c.c.h.f   .   . . . . . X . . ] c.c.c.c.2.% # % % q S D D S D D D S S S S S S v.v.",
"v.T Y T T Y Y Y Y Y Y Y Y U U U U U U J >.x.c.c.c.c.t.= . . . X X X X o o o z t.r.t.t.=.% % % % % w D D D S S S S S S A S A A v.",
"v.Y T Y Y Y Y Y Y Y J U Y U Y J U U J J L 7.c.c.c.c.c.:.@ . . X o X o o o o % & 4 4 4 1 % % % ; % ; q S D S S S S S S A A A A v.",
"v.T Y Y Y Y Y U Y U U Y J U J U U J J J H E s.c.c.c.c.c.] X X X X o o o o o O o o % O o $ $ ; % ; ; ; w S D S S A S A A A A A v.",
"v.Y Y Y Y Y Y Y U Y Y U Y U U U J J J J J H o.z.c.c.c.c.h.d X X X o o o o # % # O % % % $ % % ; ; ; : : w C S S S A A A A A A v.",
"T Y Y Y Y U Y U U Y J U U U U J J J J J J H J <.c.c.c.c.c.w.* o o o o o O o O O % % % % % ; % ; ; ; : : : b S S A A A A A A A A ",
"Y Y Y Y Y Y U Y Y U U U J U J J J J J H H H H L 8.c.c.c.c.c.=.# o o o o O O O % % % % % ; ; ; ; ; : : : : < b C A A S A C C A C ",
"Y Y Y U Y U Y U U U U U U J J J J H G J J G H G ` j.c.c.c.c.x.z o o O O O O % % % % % % ; ; ; ; : : : < < : < b C A C A A A C C ",
"Y Y Y Y U Y U U U J U U J J H J J H J H G J J G G @.x.c.c.c.c.f.i o O O # % O % % % ; ; ; ; : : : : : < < < < 8 b C A A C C C C ",
"Y Y Y Y U U U Y U U J J J J J J J J G J J H G G G H 3.c.c.c.c.c.6.1 O O O % % $ % ; ; ; ; ; : : : : < < < < 8 8 8 b C C C C C C ",
"Y U U U Y U U U U U J J J J J H G J J G G H G J G G P p.c.c.c.c.x.g o $ # % $ % ; ; ; ; ; : : : < < : < < 8 < 8 8 9 v C C C C C ",
"Y U Y U U U U U U J U J J J H H H H H H H H G H G F L y.c.c.c.c.x.l o $ $ $ % ; ; ; ; : : : : : < < < < < 8 8 8 8 9 9 b C C C C ",
"U Y U Y U U J K J J J H J H H H H H H H G G H G G H 1.c.c.c.c.c.9.4 % $ % % % ; ; ; ; : : : < : < < < < < 8 8 9 8 9 9 9 v C C N ",
"U Y U U U U U U J J J J H H H H H H H G G H G G F +.x.c.c.c.c.g.h O $ % % ; ; ; ; : : : : : < < < < 8 < 8 8 8 9 9 9 9 0 0 b N N ",
"U U U U U U H U J H H J H H H H G H G H G G G F / d.c.c.c.c.x.' O # - $ % ; ; ; : : : : : < < < < < 8 8 8 8 9 9 9 9 9 0 0 0 v N ",
"U U U U U H U U J U H H H H H H H G H G G G G K 8.c.c.c.c.c.;.1 % % % % ; ; ; : : : : : < : : 8 8 < 8 8 8 9 9 9 9 0 9 0 0 0 0 v ",
"Y J U J J U J H H H H H H H H H G H H G G G G ,.c.c.c.c.c.r.t O % % ; ; ; ; ; : ; ; - , , > 8 , 8 8 8 9 8 9 9 9 9 9 0 0 0 0 0 0 ",
"v.U U J U H J U H J J H H H H G G H G G G F } l.c.c.c.c.l.l O % % ; ; ; ; ; : : 3 ~ [ [ [ [ s 7 8 8 8 8 9 9 9 0 0 0 0 0 0 0 0 v.",
"v.U J J J U H H H H H H H H G H H G G G F I p.c.c.c.c.c.$.% $ % ; ; ; ; : : : : 5 e.c.c.c.c.~ , 8 8 9 9 9 9 9 q 9 0 0 0 v 0 v v.",
"v.J J J H J H J H H H H H F H G G G G F J 4.c.c.c.c.c.2.2 $ % ; ; ; ; ; : : : : 6 e.c.c.c.c.~ , 8 9 9 9 9 0 9 0 0 0 0 x x x c v.",
"v.J J J J H H H H H H H G H G H G G G F #.x.c.c.c.c.i.u O % $ - $ - - ; - - , , 5 e.c.c.c.c.~ 7 9 9 9 9 9 9 0 0 0 0 b 0 x c v v.",
"v.v.J J H J H H H H G H H H F G G G F ) j.c.c.c.c.c.e.%.%.%.%.&.&.&.*.*.&.-.&.-.-.h.c.c.c.c.^ 7 9 9 0 9 0 9 0 0 0 0 v 0 0 c v.v.",
"v.v.J H J H H H H G H H G G G G F F L u.c.c.c.c.c.c.c.c.c.c.c.c.c.c.c.c.c.c.c.c.c.c.c.c.c.c.^ 7 9 9 9 9 0 0 0 0 0 0 0 v v v v.v.",
"v.v.v.H H H H H H G H G G H G G F H 1.c.c.c.c.c.c.c.c.c.c.c.c.c.c.c.c.c.c.c.c.c.c.c.c.c.c.c.^ 7 9 9 0 0 0 0 c 0 0 c c c c v.v.v.",
"v.v.v.H H H H H G H G G G F G G F ( l.c.c.c.c.c.c.c.c.c.c.c.c.c.c.c.c.c.c.c.c.c.c.c.c.c.c.c.^ 7 0 9 9 0 0 0 0 c c 0 c c v v.v.v.",
"v.v.v.H H H H G H G H G F G G F D } c.c.c.c.c.c.c.c.c.c.c.c.c.c.c.c.c.c.c.c.c.c.c.c.c.c.c.c.Q 7 9 0 0 0 0 0 c 0 c c c c v v.v.v.",
"v.v.v.v.G H H G G H F G G G F G F I d.c.c.c.c.c.c.c.c.c.c.c.c.c.c.c.c.c.c.c.c.c.c.c.c.c.c.f.Z 9 0 0 0 0 0 0 c c c c v v v.v.v.v.",
"v.v.v.v.v.H G G G G G G F F G F F F { 8.t.i.i.i.i.i.i.i.a.a.a.i.i.i.a.a.i.i.a.a.a.d.a.a.q.W 9 0 0 0 0 0 0 c c x c c v v.v.v.v.v.",
"v.v.v.v.v.H H G G G G G F G F F F D S V r e e e r r r r r r y y p p p p p a a a a a a a w 7 0 0 0 0 0 c c x c c c v v v.v.v.v.v.",
"v.v.v.v.v.v.H G G G F F F F F F D F F D n ; % ; ; ; - - , : , < , < < 8 8 < 8 8 9 9 9 9 0 0 0 0 0 0 c 0 x c c v v v v.v.v.v.v.v.",
"v.v.v.v.v.v.v.G G G F G F F F F F F D F D n 3 ; : : : < : < : < < < 8 8 8 8 9 9 9 9 9 0 9 0 0 0 c 0 c c c c c v v v.v.v.v.v.v.v.",
"v.v.v.v.v.v.v.G G F F F F F D F F F S S S D B : : : : : < < < < < 8 8 8 8 8 9 9 0 0 9 0 0 0 c 0 0 c c c c c v v v v.v.v.v.v.v.v.",
"v.v.v.v.v.v.v.v.G F F F F F F S S F D D D S F B < : < : < < < < 8 8 8 8 9 9 9 9 9 9 0 0 0 0 0 c c c c c v v v v v.v.v.v.v.v.v.v.",
"v.v.v.v.v.v.v.v.v.F F D F D F S F S F D S F S S n 8 - < < < 8 8 8 8 8 9 9 9 0 9 9 0 9 0 0 0 c 0 c c c c v v v v.v.v.v.v.v.v.v.v.",
"v.v.v.v.v.v.v.v.v.v.F F F F D F F S S S S S S S S n 8 < < < < 8 8 8 9 9 9 0 9 9 0 0 0 0 0 0 c c c c c c v v v.v.v.v.v.v.v.v.v.v.",
"v.v.v.v.v.v.v.v.v.v.v.F D D D D F S S F S S S S S S B 8 < < 8 8 8 9 9 9 9 0 9 0 0 0 0 0 c c c c x v v v v v.v.v.v.v.v.v.v.v.v.v.",
"v.v.v.v.v.v.v.v.v.v.v.v.v.F D D S S S S S S S S A S S m 9 8 8 9 8 9 9 9 0 9 9 0 0 0 0 c 0 c c c v v v v.v.v.v.v.v.v.v.v.v.v.v.v.",
"v.v.v.v.v.v.v.v.v.v.v.v.v.v.D D S F S S S S S S A A A A B 9 8 9 9 9 0 9 9 0 0 0 0 c x x c c c v v v v.v.v.v.v.v.v.v.v.v.v.v.v.v.",
"v.v.v.v.v.v.v.v.v.v.v.v.v.v.v.v.S F S S S S A A A A S A A m 9 9 9 9 9 0 0 0 0 0 0 0 c x c c c c v.v.v.v.v.v.v.v.v.v.v.v.v.v.v.v.",
"v.v.v.v.v.v.v.v.v.v.v.v.v.v.v.v.v.S S S S S S A S A A C A A m 0 9 9 0 0 0 0 0 0 0 c c x c v v v.v.v.v.v.v.v.v.v.v.v.v.v.v.v.v.v.",
"v.v.v.v.v.v.v.v.v.v.v.v.v.v.v.v.v.v.v.v.S A A A A C A A C C C m q 9 0 0 0 0 0 0 c x x v v.v.v.v.v.v.v.v.v.v.v.v.v.v.v.v.v.v.v.v.",
"v.v.v.v.v.v.v.v.v.v.v.v.v.v.v.v.v.v.v.v.v.v.S A A A C A C C C C m 0 0 0 0 0 c c c c v.v.v.v.v.v.v.v.v.v.v.v.v.v.v.v.v.v.v.v.v.v.",
"v.v.v.v.v.v.v.v.v.v.v.v.v.v.v.v.v.v.v.v.v.v.v.v.v.v.A C C C C C C m 0 0 v 0 v.v.v.v.v.v.v.v.v.v.v.v.v.v.v.v.v.v.v.v.v.v.v.v.v.v."
};
