/* XPM */
static char *bitcoin16[] = {
/* columns rows colors chars-per-pixel */
"16 16 123 2 ",
"   c #003180",
".  c #053A87",
"X  c #00398D",
"o  c #053D8D",
"O  c #0C408C",
"+  c #064393",
"@  c #014297",
"#  c #064495",
"$  c #0E4997",
"%  c #004299",
"&  c #02459D",
"*  c #06469D",
"=  c #0F4D9F",
"-  c #104693",
";  c #144B97",
":  c #144C97",
">  c #124D9A",
",  c #124C9B",
"<  c #174F9A",
"1  c #124F9E",
"2  c #15509E",
"3  c #1D529B",
"4  c #25559A",
"5  c #29579A",
"6  c #0D4FA2",
"7  c #104FA0",
"8  c #0E50A3",
"9  c #0F53A5",
"0  c #1051A3",
"q  c #1451A2",
"w  c #1152A4",
"e  c #1153A6",
"r  c #1656A9",
"t  c #0B56BD",
"y  c #145AB6",
"u  c #155CBA",
"i  c #145ABD",
"p  c #185FBD",
"a  c #2E5DA0",
"s  c #1B60BE",
"d  c #1A62BE",
"f  c #3662A2",
"g  c #3364A7",
"h  c #3664A5",
"j  c #3767A8",
"k  c #416DAE",
"l  c #4A72AC",
"z  c #4A75AF",
"x  c #517CB5",
"c  c #135CC8",
"v  c #185FC9",
"b  c #1B62C0",
"n  c #1C63C5",
"m  c #1F64C5",
"M  c #1A62CB",
"N  c #1D63CA",
"B  c #1C64C8",
"V  c #1861CD",
"C  c #1B63CD",
"Z  c #1D64CF",
"A  c #2166C4",
"S  c #2368C7",
"D  c #2267CA",
"F  c #2166CC",
"G  c #276BCE",
"H  c #296BCC",
"J  c #286BCF",
"K  c #286CCE",
"L  c #2E6ECC",
"P  c #306FCB",
"I  c #2166D1",
"U  c #2368D3",
"Y  c #256AD5",
"T  c #286CD1",
"R  c #2A6ED2",
"E  c #2A6ED3",
"W  c #2C6FD3",
"Q  c #2D6FD5",
"!  c #2469D8",
"~  c #2F70D6",
"^  c #2F72DB",
"/  c #3071D7",
"(  c #3072DA",
")  c #3273DB",
"_  c #3374DB",
"`  c #3574D8",
"'  c #3777DD",
"]  c #3877DC",
"[  c #3B79DB",
"{  c #6F8DB9",
"}  c #4B83D8",
"|  c #588AD5",
" . c #7095C6",
".. c #7A97C2",
"X. c #7DA5E0",
"o. c #9DAFCD",
"O. c #91AFD8",
"+. c #9BB3D5",
"@. c #9DB4D4",
"#. c #A1B5D2",
"$. c #A3BBD9",
"%. c #92B3E3",
"&. c #B2C3DB",
"*. c #B6C8DF",
"=. c #B2C8E9",
"-. c #B1C8EB",
";. c #B8CDF0",
":. c #C1CBDC",
">. c #C9D2E0",
",. c #D5DDE8",
"<. c #C4D6F0",
"1. c #C6D7F2",
"2. c #CFDEF5",
"3. c #D0DFF8",
"4. c #D2E1F7",
"5. c #DAE3F0",
"6. c #DCE6F6",
"7. c #D2E2F8",
"8. c #E6EDF7",
"9. c #E9EEF6",
"0. c #F4F6F7",
"q. c #FFFFFD",
"w. c None",
/* pixels */
"w.w.w.w.w.' ( ( Q W L w.w.w.w.w.",
"w.w.w.] ' ( ( Q W R R J J w.w.w.",
"w.w.' ^ ! Y I Z C N M F D D w.w.",
"w.] ^ [ ;.1.3.7.4.2.=.P n A A w.",
"w._ ( ` 6.q.>.:.:.,.q.j i B b w.",
"' ( ( I } q.o.  . 5 ..4 , s s s ",
"( ^ Q R V X.q.{ O > o ; > , u p ",
"~ Q R R E v -.q.f - 3 3 > > 0 y ",
"Q R R G G N <.0.a ; $ # , , 6 0 ",
"Q G G G c %.q.l X + j x 6 , 8 8 ",
"W G G M | q.&.h z j *.9.7 8 8 0 ",
"w.G Z L 8.q.q.q.q.q.q.5.8 8 8 w.",
"w.J n J O.#.@.@.@.+.$. .* 9 9 w.",
"w.w.S b t * + @ % % % & 8 0 w.w.",
"w.w.w.A S s r 2 q 0 e 9 e w.w.w.",
"w.w.w.w.w.s s 0 0 0 e w.w.w.w.w."
};
