/* XPM */
static char *c82fe38824df4cb1a6751285dc66101c[] = {
/* columns rows colors chars-per-pixel */
"16 16 149 2 ",
"   c #021693",
".  c #071D98",
"X  c #051E9B",
"o  c #031F9E",
"O  c #06219E",
"+  c #09239F",
"@  c #0B249D",
"#  c #0724A3",
"$  c #0923A0",
"%  c #0A27A4",
"&  c #0728A7",
"*  c #0A29A7",
"=  c #0629AA",
"-  c #072CAF",
";  c #0B2AA9",
":  c #0A2CAC",
">  c #1933A8",
",  c #072EB4",
"<  c #0A2EB0",
"1  c #0A2FB0",
"2  c #0B2FB0",
"3  c #092FB4",
"4  c #0930B4",
"5  c #0B32B5",
"6  c #0731B8",
"7  c #0832B9",
"8  c #0B34B8",
"9  c #0A34B9",
"0  c #0A34BA",
"q  c #0A36BD",
"w  c #0835BE",
"e  c #0936BE",
"r  c #0A37BE",
"t  c #0A37BF",
"y  c #0C36BC",
"u  c #0B38BF",
"i  c #2A3AA2",
"p  c #3542A4",
"a  c #3749AC",
"s  c #384CB0",
"d  c #425CBF",
"f  c #4A61BE",
"g  c #4E63BD",
"h  c #6370BC",
"j  c #6B76BE",
"k  c #0A38C2",
"l  c #0A39C3",
"z  c #093AC6",
"x  c #093AC7",
"c  c #0E41CF",
"v  c #1342CD",
"b  c #1042CF",
"n  c #1243CE",
"m  c #1047D7",
"M  c #1248D9",
"N  c #1349D9",
"B  c #124CDF",
"V  c #264BC2",
"C  c #2753D4",
"Z  c #134DE0",
"A  c #134EE1",
"S  c #154FE2",
"D  c #1650E3",
"F  c #1651E4",
"G  c #1852E4",
"H  c #1852E5",
"J  c #1852E6",
"K  c #1953E6",
"L  c #1A54E6",
"P  c #1A54E7",
"I  c #1B55E7",
"U  c #1B56EA",
"Y  c #1C56E9",
"T  c #1D57E9",
"R  c #1D58EB",
"E  c #1E58EA",
"W  c #1E59EB",
"Q  c #1F59ED",
"!  c #1F5AEE",
"~  c #205AEA",
"^  c #205AEB",
"/  c #215BED",
"(  c #215CEF",
")  c #235DEE",
"_  c #225CEF",
"`  c #245EEF",
"'  c #235EF1",
"]  c #245EF0",
"[  c #245FF2",
"{  c #3466E6",
"}  c #3D6FED",
"|  c #2660F1",
" . c #2661F2",
".. c #2661F4",
"X. c #2862F2",
"o. c #2963F4",
"O. c #2A64F5",
"+. c #2B65F5",
"@. c #2C66F6",
"#. c #2C66F7",
"$. c #2D66F7",
"%. c #2E68F8",
"&. c #4E65C1",
"*. c #4E67C4",
"=. c #4F69C7",
"-. c #4E6BCA",
";. c #506BCA",
":. c #6D7CC5",
">. c #6C7DC8",
",. c #4978EF",
"<. c #4476F3",
"1. c #4074F5",
"2. c #6F81CB",
"3. c #7685C9",
"4. c #5F89F0",
"5. c #5F89F2",
"6. c #5F8AF3",
"7. c #638DF3",
"8. c #618BF4",
"9. c #618CF5",
"0. c #618CF6",
"q. c #8C9FDD",
"w. c #99A2D5",
"e. c #9AA9DF",
"r. c #82A2F2",
"t. c #88A8F8",
"y. c #90ADF5",
"u. c #92AEF6",
"i. c #BFC3E1",
"p. c #D1D8F2",
"a. c #D5DBF0",
"s. c #D5E0FC",
"d. c #D8E3FD",
"f. c #E1E4F2",
"g. c #E3E6F3",
"h. c #E2E5F4",
"j. c #E3E6F5",
"k. c #E4E7F4",
"l. c #E7ECFA",
"z. c #E8ECFA",
"x. c #ECEEF9",
"c. c #F0F2FA",
"v. c #F8F9FC",
"b. c #F9FAFD",
"n. c #FAFAFC",
"m. c #FAFBFD",
"M. c #FBFCFF",
"N. c #FCFDFE",
"B. c None",
/* pixels */
"B.B.B.B.B.$.O.o.| | ) B.B.B.B.B.",
"B.B.B.%.$.O.o.o.| ` ) ) ~ B.B.B.",
"B.B.%.$.O...' ' ) ! ! ~ W W B.B.",
"B.%.$.O.1.9.9.8.6.6.,.W Y L L B.",
"B.$.O.| t.N.x.g.j.c.p.C L L D B.",
"$.O.O.| <.d.i.p i h w.> v L S S ",
"O.o.X.| ' 8.l.j   . @ @ : v S Z ",
"o.X.| ` ) ) u.g.a X $ % * 1 v B ",
"X.] ] ) / ~ y.g.s O # & = 1 9 c ",
"| ] ) / Y 4.z.:.X # &.d 1 5 9 k ",
"` ` / W } s.f.3.>.2.a.e.5 0 e k ",
"B./ / Y r.b.v.b.b.b.N.q.6 e l B.",
"B.~ W Y { -.g *.*.=.-.V e l x B.",
"B.B.Y I L m 3 = = , 6 e l x B.B.",
"B.B.B.L L D N y 8 0 e l x B.B.B.",
"B.B.B.B.B.S S m u e l B.B.B.B.B."
};
