/* XPM */
static char *eb29dda03cce4d8fcf5bcd6d5ada072f[] = {
/* columns rows colors chars-per-pixel */
"32 32 118 2 ",
"   c #003283",
".  c #073884",
"X  c #093D87",
"o  c #003288",
"O  c #033C8E",
"+  c #0A3E89",
"@  c #0E418B",
"#  c #134087",
"$  c #044194",
"%  c #0A4393",
"&  c #06479C",
"*  c #094799",
"=  c #05489D",
"-  c #0B499C",
";  c #134793",
":  c #164B95",
">  c #1B4D94",
",  c #134D9B",
"<  c #184F99",
"1  c #15509D",
"2  c #1A519B",
"3  c #0E4FA2",
"4  c #0D4EAA",
"5  c #114FA0",
"6  c #0C50A3",
"7  c #1252A4",
"8  c #1857A7",
"9  c #1455AD",
"0  c #1857AE",
"q  c #1957B0",
"w  c #175CB7",
"e  c #1E5AB1",
"r  c #155DBC",
"t  c #2C5FA3",
"y  c #1660BE",
"u  c #1A61BD",
"i  c #2D61A5",
"p  c #3E66A1",
"a  c #366BAE",
"s  c #2165BF",
"d  c #446FAC",
"f  c #4371AF",
"g  c #4871AB",
"h  c #5177AF",
"j  c #4171B1",
"k  c #135CC7",
"l  c #185FC7",
"z  c #165EC9",
"x  c #1661C1",
"c  c #1C63C4",
"v  c #1760CA",
"b  c #1B63CB",
"n  c #1D64D2",
"m  c #2266C6",
"M  c #2668C3",
"N  c #2868C4",
"B  c #2266CB",
"V  c #266ACD",
"C  c #2A6CCD",
"Z  c #306FCD",
"A  c #3070CF",
"S  c #2066D5",
"D  c #276CD3",
"F  c #2A6ED3",
"G  c #276CD9",
"H  c #2A6ED9",
"J  c #2E70D5",
"K  c #2F71D9",
"L  c #3171D4",
"P  c #3273DB",
"I  c #3877DC",
"U  c #3A78DC",
"Y  c #4E7EC6",
"T  c #457ED0",
"R  c #487FD1",
"E  c #467FDB",
"W  c #6484B4",
"Q  c #6C8CBA",
"!  c #718DB7",
"~  c #718FBA",
"^  c #6D90BF",
"/  c #7491BB",
"(  c #4A82DD",
")  c #5185D3",
"_  c #5589D7",
"`  c #5E8FDF",
"'  c #7494C1",
"]  c #7E99C1",
"[  c #6493D8",
"{  c #7AA2DC",
"}  c #7FA6E2",
"|  c #82A2CB",
" . c #88A5CB",
".. c #9FB0CB",
"X. c #94AED0",
"o. c #9DB4D5",
"O. c #A7B9D5",
"+. c #AEBDD5",
"@. c #87ABE0",
"#. c #8CAFE3",
"$. c #8EB0E5",
"%. c #91B2E4",
"&. c #A2BEE5",
"*. c #B1C8EB",
"=. c #BBCFEC",
"-. c #C0CFE4",
";. c #C3D1E4",
":. c #D1DBE7",
">. c #DAE1ED",
",. c #D6E2F1",
"<. c #DEE7F5",
"1. c #DFE8F4",
"2. c #E6EBF1",
"3. c #EAEFF7",
"4. c #F4F7FA",
"5. c #F6F9FB",
"6. c #FEFEFE",
"7. c None",
/* pixels */
"7.7.7.7.7.7.7.7.7.7.7.7.I I K K L L L L 7.7.7.7.7.7.7.7.7.7.7.7.",
"7.7.7.7.7.7.7.7.7.U I P P K K J L D J F F C A 7.7.7.7.7.7.7.7.7.",
"7.7.7.7.7.7.7.7.P P P P K K J J D F F F V F V C 7.7.7.7.7.7.7.7.",
"7.7.7.7.7.7.U P P P K P K K J F F F F V F V V V V C 7.7.7.7.7.7.",
"7.7.7.7.7.U P P P I P P L J L J J J J C C V V B B B C 7.7.7.7.7.",
"7.7.7.7.I P P P H S n S n n n b v v v v z b V B B B c m 7.7.7.7.",
"7.7.7.U P P P H ` %.$.$.$.$.#.#.#.#.#.#.%.[ b B B c c c m 7.7.7.",
"7.7.U P P P H ( 5.6.6.6.6.6.6.6.6.6.6.6.6.6.Y v m m m c c M 7.7.",
"7.7.I P P P H E 4.6.5.6.6.6.6.6.6.6.6.6.4.6.W 6 B c c c x c 7.7.",
"7.U P P K K P n } 6.5.6...W / ! ! / W ;.6.6.W @ e b c c u y s 7.",
"7.P P P K K J J n *.6.6.:.# . X + @   / >.,.h % > q c c u r u 7.",
"7.P P H K K J F F L 1.6.6.+.# > > > > ; ; ; : < , : 0 c u y y 7.",
"I P K K J J F F F n _ 6.6.6.~ X > : : > : : : : , , : 9 x y w u ",
"P P K J J F F F F F v @.6.6.5.p # > : : : : , , , , , , 9 l w u ",
"P K J J F F D F C D C b =.6.6.:.> ; : : : , , : : , , 5 , 9 r w ",
"P H J D D F F F V V V B C 3.6.6./ @ > ; : , : , , , , , 5 - 9 r ",
"K J F F F F F V V V V v ) 5.6.6.Q % : : : , , , - 1 , 3 5 1 3 9 ",
"L F F F V F V V V V B C 2.6.6.O.% : , , , , < < 1 1 , 1 3 3 6 5 ",
"L F F V F V V V V V z *.6.6.>.> : : : , , $ $ * 1 3 , 5 3 3 3 5 ",
"F F D F V V V V V l { 6.6.6.f ; 2 2 2 , i X.o.' * 1 3 3 5 3 3 8 ",
"7.C V D V V V V v R 5.6.6.Q o % $ $ $ O i 6.6.;.- 5 5 3 3 3 6 7.",
"7.J C V V V V B m ,.6.6.2.~ / ' ' / ' ^  .5.6.-.- 5 3 3 3 6 6 7.",
"7.A V V V B B l &.6.6.6.6.6.6.6.6.6.6.6.6.6.6.;.= 3 3 6 6 6 8 7.",
"7.7.D B V B b T 6.6.6.6.6.5.6.6.6.5.6.5.6.5.6.;.= 7 3 6 6 6 7.7.",
"7.7.C B B B c Z >.6.6.6.6.6.6.6.6.6.6.6.6.6.6.| = 6 6 6 6 8 7.7.",
"7.7.7.C B B c c m f d d d f j j j f j j j j a 3 6 3 6 6 9 7.7.7.",
"7.7.7.7.B c c m c r , % % % * * * * - = = = = 6 6 6 6 7 7.7.7.7.",
"7.7.7.7.7.B c c c c r 7 , 1 1 1 5 1 5 7 5 6 7 6 6 6 4 7.7.7.7.7.",
"7.7.7.7.7.7.M c c u c w 5 , 1 , , 5 3 3 3 6 6 6 6 8 7.7.7.7.7.7.",
"7.7.7.7.7.7.7.M u u r y r 6 , 3 5 6 3 5 3 6 6 6 8 7.7.7.7.7.7.7.",
"7.7.7.7.7.7.7.7.7.m u w l w 7 , 3 5 3 6 3 6 8 7.7.7.7.7.7.7.7.7.",
"7.7.7.7.7.7.7.7.7.7.7.7.u u w 7 5 7 7 8 7.7.7.7.7.7.7.7.7.7.7.7."
};
