/* XPM */
static char *_7d10a61a84d48d2d1b7a5ab72f98857[] = {
/* columns rows colors chars-per-pixel */
"64 64 162 2 ",
"   c #0D397F",
".  c #0B3C86",
"X  c #063F8E",
"o  c #093E8D",
"O  c #073F90",
"+  c #0B408D",
"@  c #144187",
"#  c #12428B",
"$  c #18478C",
"%  c #19498F",
"&  c #054194",
"*  c #0C4492",
"=  c #0F4897",
"-  c #02439A",
";  c #07499D",
":  c #0C4B9C",
">  c #134794",
",  c #164B95",
"<  c #194B93",
"1  c #134D9B",
"2  c #194F99",
"3  c #1F5097",
"4  c #16519D",
"5  c #1C529A",
"6  c #204C8F",
"7  c #255091",
"8  c #27569B",
"9  c #28569A",
"0  c #36609F",
"q  c #3A639F",
"w  c #0E4FA2",
"e  c #0F4DAC",
"r  c #104FA1",
"t  c #0C50A3",
"y  c #1353A3",
"u  c #1A57A5",
"i  c #1B59A5",
"p  c #1555AE",
"a  c #1957AE",
"s  c #1C5AAB",
"d  c #1356B1",
"f  c #1957B0",
"g  c #1B59B1",
"h  c #155DBC",
"j  c #195FBD",
"k  c #225BA5",
"l  c #225EA9",
"z  c #205DB4",
"x  c #1660BE",
"c  c #1A61BE",
"v  c #2560A9",
"b  c #3F66A1",
"n  c #3868A7",
"m  c #3667A9",
"M  c #3969AA",
"N  c #2265BC",
"B  c #2867BB",
"V  c #2A6ABE",
"C  c #4469A1",
"Z  c #496FA7",
"A  c #486FA8",
"S  c #5173A4",
"D  c #5479AE",
"F  c #4575B2",
"G  c #4375BC",
"H  c #557EB5",
"J  c #145DC5",
"K  c #195FC3",
"L  c #175EC9",
"P  c #185FCA",
"I  c #1660C1",
"U  c #1C63C4",
"Y  c #1D64CA",
"T  c #1E64D3",
"R  c #2165C6",
"E  c #2468C3",
"W  c #2C6CC4",
"Q  c #2267CA",
"!  c #256ACE",
"~  c #2B6CCD",
"^  c #306FCE",
"/  c #3371C6",
"(  c #3371CC",
")  c #3A76CE",
"_  c #2166D1",
"`  c #266AD2",
"'  c #2A6ED3",
"]  c #2469D8",
"[  c #2B6ED9",
"{  c #2E70D6",
"}  c #2F71D9",
"|  c #3372D4",
" . c #3A76D4",
".. c #3D78D0",
"X. c #3173DB",
"o. c #3877DB",
"O. c #3C79DB",
"+. c #427BCE",
"@. c #437DDB",
"#. c #5C85B9",
"$. c #6A89B5",
"%. c #678CBE",
"&. c #6A8CBB",
"*. c #7391BD",
"=. c #7993BA",
"-. c #4C83CE",
";. c #5484C9",
":. c #4680DC",
">. c #5B8CD4",
",. c #5186DB",
"<. c #5588D8",
"1. c #7D9AC1",
"2. c #6593D6",
"3. c #6B97D7",
"4. c #709BD7",
"5. c #729DD9",
"6. c #6D99E1",
"7. c #749EE3",
"8. c #889EBF",
"9. c #8CA6CB",
"0. c #8DA9CE",
"q. c #9AADCB",
"w. c #83A7DB",
"e. c #82A8DF",
"r. c #8DAEDD",
"t. c #8FB0DD",
"y. c #A3B5CF",
"u. c #A4B6D3",
"i. c #A5B8D4",
"p. c #AABCD6",
"a. c #ABBDD8",
"s. c #B1BFD4",
"d. c #98B6E1",
"f. c #9EBBE1",
"g. c #B7C4D6",
"h. c #B5C5DB",
"j. c #BBCADC",
"k. c #ABC4E5",
"l. c #B2C7E5",
"z. c #B5CCE9",
"x. c #BFD2EB",
"c. c #C2CCDD",
"v. c #C6D0DF",
"b. c #C3CFE0",
"n. c #C6D1E1",
"m. c #CCD6E5",
"M. c #CED8E7",
"N. c #C4D6ED",
"B. c #CAD9EE",
"V. c #D1DAE5",
"C. c #D3DEEB",
"Z. c #DAE1EB",
"A. c #D6E2F2",
"S. c #DAE4F1",
"D. c #E0E5ED",
"F. c #E4EBF4",
"G. c #EAEFF5",
"H. c #F0F3F6",
"J. c #F2F5F8",
"K. c #F7F9FA",
"L. c #FEFEFE",
"P. c None",
/* pixels */
"P.P.P.P.P.P.P.P.P.P.P.P.P.P.P.P.P.P.P.P.P.P.P.P.P.P.P.P.@. .| [ ^  . . .P.P.P.P.P.P.P.P.P.P.P.P.P.P.P.P.P.P.P.P.P.P.P.P.P.P.P.P.",
"P.P.P.P.P.P.P.P.P.P.P.P.P.P.P.P.P.P.P.P.P.P.P.o.o.o.X.X.} } } } | ' { ' { { | |  .P.P.P.P.P.P.P.P.P.P.P.P.P.P.P.P.P.P.P.P.P.P.P.",
"P.P.P.P.P.P.P.P.P.P.P.P.P.P.P.P.P.P.P.P.@.o.X.X.X.} X.} } { { { [ | ' { ' ` ' ` ' ~ ' ) P.P.P.P.P.P.P.P.P.P.P.P.P.P.P.P.P.P.P.P.",
"P.P.P.P.P.P.P.P.P.P.P.P.P.P.P.P.P.P.o.o.X.X.X.X.} X.} } } { { ' { ' [ ' ' ~ ' ' ` ' ! ! ~ ^ P.P.P.P.P.P.P.P.P.P.P.P.P.P.P.P.P.P.",
"P.P.P.P.P.P.P.P.P.P.P.P.P.P.P.P.O.X.X.X.X.X.X.} X.} } } { { { { ' ' ' ' ' ' ' ` ' ! ~ ~ ! ! ~ ^ P.P.P.P.P.P.P.P.P.P.P.P.P.P.P.P.",
"P.P.P.P.P.P.P.P.P.P.P.P.P.P.@.o.X.X.X.X.} X.} X.} X.} { { { { { ' ' ' ' ' ` ` ~ ` ~ ` ! ! ` Q Q ! ) P.P.P.P.P.P.P.P.P.P.P.P.P.P.",
"P.P.P.P.P.P.P.P.P.P.P.P.P.O.X.X.X.X.X.} X.} } } } } { { { { { { ' ' ' ' ' ' ` ~ ! ` ! ! ` ! ! ! ! ! ~ P.P.P.P.P.P.P.P.P.P.P.P.P.",
"P.P.P.P.P.P.P.P.P.P.P.P.o.X.X.X.X.X.X.X.X.X.} } } { { { { { ` ' ' ' ' ' ` ~ ' ! ` ~ ! ! ! ! ! ! ! Q Q W P.P.P.P.P.P.P.P.P.P.P.P.",
"P.P.P.P.P.P.P.P.P.P.:.o.X.X.X.X.X.} X.} } } } } { { ' { } ' ' ' ' ' ' ` ~ ` ~ ! ` ! ! ! ! ! ! ! ! ! ! Y ! ( P.P.P.P.P.P.P.P.P.P.",
"P.P.P.P.P.P.P.P.P.:.o.X.X.X.X.X.X.} } X.} } } { { { { { ' ' ' ~ ' ' ' ! ' ! ! ` ~ ! ! ! ! ! ! Q R Y Q Q Y R / P.P.P.P.P.P.P.P.P.",
"P.P.P.P.P.P.P.P.:.o.X.X.X.X.X.X.X.X.X.X.X.} } } { { { ' ' ' ' ' ' ` ` ' ! ` ! ! ! ! ! ! ! Q ! Q Q Q Q R R Y R / P.P.P.P.P.P.P.P.",
"P.P.P.P.P.P.P.P.o.X.X.X.X.X.X.X.X.X.} } } ' { ' } ' [ [ ` ` ` ! ` ' ! ! ! ` ! ` ! ! ! ! ! Q Q Q Q Q Y R R R U R P.P.P.P.P.P.P.P.",
"P.P.P.P.P.P.P.o.X.X.X.X.X.X.X.X.[ ] o.| |  .| | } | | ^ | | | ^ ( ^ ^ ^ ^ ^ ^ ^ ~ ^ Q Y Q Q ! Q Q Y R R R U R R R P.P.P.P.P.P.P.",
"P.P.P.P.P.P.o.X.X.X.X.X.X.X.X.] ,.N.F.F.F.F.F.F.F.F.F.F.F.F.F.F.F.F.F.F.F.F.F.F.F.F.A.3.P ! Q R R R Y Y U R R U U E P.P.P.P.P.P.",
"P.P.P.P.P.:.X.X.X.X.X.X.X.X.X.o.F.L.L.L.L.L.L.L.L.L.L.L.L.L.L.L.L.L.L.L.L.L.L.L.L.L.L.L.;.P ! R Y U Y E R U U U U U W P.P.P.P.P.",
"P.P.P.P.P.o.X.X.X.X.X.X.X.X.] 7.L.K.L.L.L.L.L.L.L.L.L.L.L.L.L.L.L.L.L.L.L.L.L.L.L.L.K.L.q.e ! R E Y E U U Y Y U U U U P.P.P.P.P.",
"P.P.P.P.o.X.X.X.X.X.X.X.X.X.] 6.L.L.L.L.L.L.L.L.L.L.L.L.L.K.L.L.K.L.L.L.L.L.L.L.L.L.L.L.i.+ z Y U U U E U U U U U U U N P.P.P.P.",
"P.P.P.P.o.X.X.X.} X.} } } } } | A.L.L.L.L.L.L.L.L.L.L.L.L.L.L.L.L.L.L.L.L.L.L.L.L.L.L.L.i.+ < g Q Y R U U U U U U I x U P.P.P.P.",
"P.P.P.o.X.X.X.X.X.X.} } } } } ` <.K.L.L.L.L.L.L.V.c.v.v.n.n.n.n.n.n.n.n.n.v.M.L.L.L.L.L.i.+ < < g Y U U U U U U U U x j c P.P.P.",
"P.P.P.X.X.X.X.X.X.} } } { { { { T e.L.L.L.L.L.L.g.  @ @ @ @ @ # # # # + # . C L.K.L.K.L.u.+ 1 < , g Y U U U c U x x j j c P.P.P.",
"P.P.o.X.X.X.X.X.} } } } { { { { { T z.L.L.L.L.L.L.8.. 6 % % % % < < % < < # A L.L.L.L.L.p.+ , < , , g U U U U c U c c x x c P.P.",
"P.P.X.X.X.X.X.X.} } } { { { { [ { ` | F.L.L.L.L.L.L.S . % $ % % % % % % < # 0 a.a.a.p.h.=.* , 1 1 1 , a U I I c j x x c x c P.P.",
"P.:.X.X.X.X.X.X.} [ { { { { } ' ' ' T >.L.L.L.L.L.L.D.7 # % % % % % % < , < % # o O O O * , , 1 < 1 1 , f I I U j j x h x x V P.",
"P.o.[ X.X.[ X.[ { { { { { { ' ' ' ' ' T r.L.L.L.L.L.L.s.@ < % % % % < % % , % < < 2 2 < 2 , , , , , , 4 , f I c x j x x h x c P.",
"P.o.X.X.[ X.X.} { | [ } ' ' ' ' ' ' ' ~ Q x.L.L.L.L.L.L.=.. < % % % , < % % , , % , , , , , 1 , , 1 1 , 1 1 p I J x j h h h c P.",
"P.X.X.X.[ | } } ' ' | ' [ ' ' ' ' ` ! ' _ ..G.L.L.L.L.L.K.C # % % % % % , , , % , , , , 1 , 1 , 1 1 , , 1 1 , p x x j h h h j P.",
"O.X.[ X.} } | | ' } [ ' ' ' ~ ' ' ' ` ~ ~ Y 2.L.L.L.L.L.L.C.< % < < % < , , , , , , 1 , , , 1 1 1 1 1 1 , 1 4 1 p x h h d h h B ",
"o.X.[ X.| [ ' [ } { ' ' ' ' ` ' ` ! ' ! ! ' P d.L.L.L.L.L.L.y.o < , , , % , % , , , < , 2 , 1 , , , 1 1 , : : 4 : p x h j h h N ",
"o.X.} } { { { [ ' ' ' ' ` ' ~ ` ` ~ ! ` ~ ! ! E B.L.L.L.L.L.L.$.o < < , , % , , < , , 1 , 1 1 , 1 1 1 , 1 : 1 : r 1 p j h h d c ",
"X.X.} { { { ' { ' ' ' ' ` ' ` ~ ` ` ~ ` ! ! ` Y ..J.L.L.L.L.L.H.q * < , > , , , 1 < 1 , 1 < 1 1 , 1 1 1 1 1 4 4 1 1 : p h h h h ",
"X.[ X.{ { { ' ' ' ' ' ' ' ` ~ ~ ~ ~ ! ! ! ! ! ` L 4.L.L.L.L.L.L.j.# > < , , , , < 1 1 < 1 , 1 1 1 : 1 1 1 4 1 r r r 4 : t h d x ",
"[ [ } { ' { { ' ' ' ' ' ~ ` ~ ` ~ ` ! ! ! ! ! Q ~ J l.L.L.L.L.L.G.8 > 2 , , 2 1 1 , 1 1 , 1 1 1 1 1 1 1 r 1 1 1 r 1 t 1 t d h d ",
"{ { { { { ' ' ' ' ' ' ! ` ~ ! ! ! ! ! ! ! ! ! ` Y ) F.L.L.L.L.L.Z.2 , , , , 2 , , , 1 1 1 , 1 : : 1 1 4 r 1 1 r r 1 1 r t r y h ",
"{ { { ' ' ' ' ~ ` ` ~ ' ~ ` ~ ` ! ! ! ! ! Q ! Q Y N.L.L.L.L.L.L.$.O 2 2 , , , 1 1 1 1 , 1 1 1 1 1 1 4 1 1 1 t 1 r 1 r t r r : d ",
"| { ' { ' ' ' ` ' ! ' ! ` ! ~ ! ! ! ! ! ! Q W J r.L.L.L.L.L.L.p.+ , , , , 1 1 , 1 , , 1 1 1 1 1 1 1 1 4 1 r r 1 1 r r : r r t y ",
"| ' { ' ' ' ' ` ' ~ ` ~ ! ` ! ! ! ! ! Q ! ! L >.L.L.L.L.L.L.Z.3 , 2 , , , 1 2 1 , 1 1 1 , 1 1 1 4 1 : t r 4 r r t r r t t t t y ",
" .{ ' ' ' ' ` ' ` ~ ` ~ ` ! ! ! ! ! ! ! ! Y ^ F.L.L.L.L.L.K.A + 2 , , , 1 1 1 , , 1 1 4 1 1 4 1 1 1 1 t 1 1 1 r r r t w r t w i ",
" .' ' ' ' ! ' ! ` ` ~ ` ! ! ! ! ! Q Q Q ~ K z.L.L.L.L.L.L.1.O 5 , , 2 1 , , 2 1 1 1 = & ; = ; 1 4 t t 1 r 4 r r t r r r t r w k ",
"P.' ' ' ' ~ ~ ` ` ~ ! ! ! ! ! ! ! Q Q ~ J w.L.L.L.L.K.L.h.+ 2 , , 2 = 2 = 1 1 1 1 5 M n n m M k : 1 y t r r r t r r w w w w t P.",
"P.' ' ` ~ ` ` ! ~ ` ! ! ! ! ! ! Q Q ! L -.K.L.L.L.L.L.F.8 = , , 1 1 1 2 , 1 1 2 * H L.K.K.K.L.0.& y 1 1 r r t 1 r t w w w w y P.",
"P.| ' ` ~ ! ' ! ! ! ! ! ` ! ! R Q W Q ! S.L.L.L.L.L.L.D + 5 , 2 = 1 = , , 1 1 1 * #.K.L.L.L.L.0.& y r r r t w w t : w t w t y P.",
"P...` ' ' ! ! ! ! ! ! Q ! R ! ! Q ! J k.L.L.L.L.L.L.9.O 2 , 1 2 2 2 , 4 4 1 1 4 & #.L.K.L.K.L.0.- 4 r : 4 : r w t t w w w t s P.",
"P.P.{ ` ! ` ` ! ! ! ! ! ! Q ! Q ! J 5.L.L.L.L.L.L.j.* % > > > = = > = = = = = , & H L.L.L.L.L.0.- r 4 w t t w w t r t w t t P.P.",
"P.P.( ! ~ ! ~ ! ! ! ! ! ! ! R ! L +.K.L.L.L.L.L.L.Z.n.M.M.M.M.m.m.M.M.M.M.m.m.m.n.Z.L.L.L.L.L.0.- r t t 1 t w w r t w t t u P.P.",
"P.P...! ` ! ` ! ! ! Q Q Q ! Q Y R C.L.L.L.L.L.L.L.L.L.L.L.L.L.L.L.L.L.L.L.L.L.L.L.L.L.L.L.L.L.0.- r t r t w w w t t t t t v P.P.",
"P.P.P.^ ! ! ! ! ! ! ! ! Q R ! J f.L.L.L.L.L.L.L.L.L.L.L.L.L.L.L.L.L.L.L.L.L.L.L.L.L.L.L.L.L.L.0.- y r r t t w e t t t t y P.P.P.",
"P.P.P...! ! ! ! ! Q Q Q Q ! P -.L.L.L.L.L.L.L.L.L.L.L.L.L.L.L.L.L.L.L.L.L.L.L.L.L.L.L.L.L.L.L.0.- y t t t t t t t t t t v P.P.P.",
"P.P.P.P.~ ! ! E Q ! Q Q R ! J 5.L.L.L.L.L.L.L.L.L.L.L.L.L.L.L.L.L.L.L.L.L.L.L.L.L.L.L.L.L.K.L.0.- r t r ; e t t t t t y P.P.P.P.",
"P.P.P.P.P.! ! Q Q Q Q Q Q Q I -.L.L.L.K.L.L.L.K.L.L.L.K.L.L.L.L.L.L.K.L.L.L.K.L.K.L.L.L.K.K.L.#.- y t t t e t t t t t P.P.P.P.P.",
"P.P.P.P.P.^ Q ! Q ! R ! R R Y I r.L.L.L.L.L.L.L.L.L.L.L.L.L.L.L.L.L.L.L.L.L.L.L.L.L.L.L.L.L.u.w t t r t t t t t t t s P.P.P.P.P.",
"P.P.P.P.P.P.! ! Q Q Y Y R Y Y R J G $.&.$.&.$.&.&.&.&.&.%.%.&.%.%.&.&.&.%.&.&.&.%.%.%.%.%.F ; t t w t t t t t t e d P.P.P.P.P.P.",
"P.P.P.P.P.P.P.E R Q Y R Y U U R R J t + * & & & * & & & & & & & & - - - - - - - - - - - - ; y t w w t t t t t t t P.P.P.P.P.P.P.",
"P.P.P.P.P.P.P.) Q R Q U R Y U E U R Q s , 4 4 2 2 2 1 4 4 4 1 4 4 4 4 y y 4 y y y r y r y y e w w w t t t t t t v P.P.P.P.P.P.P.",
"P.P.P.P.P.P.P.P.( Q U R Y E U U U U I Y a , , 1 1 : , 1 1 1 t 1 1 r r 1 1 4 r r w t r t t t t w w t t t t e t l P.P.P.P.P.P.P.P.",
"P.P.P.P.P.P.P.P.P./ U Y R R U U U U U U I a , 1 2 , 1 r 4 4 1 1 1 r 4 1 r r t r t r r t t t t t t t t t t t s P.P.P.P.P.P.P.P.P.",
"P.P.P.P.P.P.P.P.P.P./ R U U U U Y I c U I I p 1 1 : 1 1 1 1 r 1 r r 1 r r r : t 4 t t r t t ; t t t t t e p P.P.P.P.P.P.P.P.P.P.",
"P.P.P.P.P.P.P.P.P.P.P./ E U R U I U x c c U I a 1 : 1 4 r 1 1 w 1 r r r r t t 4 w w w w w w t t t t t y v P.P.P.P.P.P.P.P.P.P.P.",
"P.P.P.P.P.P.P.P.P.P.P.P.P.E U I U U U x j j x I p 1 4 1 1 1 w 1 r 1 r y : r w t w w t w t t t t t t y P.P.P.P.P.P.P.P.P.P.P.P.P.",
"P.P.P.P.P.P.P.P.P.P.P.P.P.P.W I U x U c x x j x I d 1 r r r r 4 1 r r : t 1 w w t w t t t t t t e s P.P.P.P.P.P.P.P.P.P.P.P.P.P.",
"P.P.P.P.P.P.P.P.P.P.P.P.P.P.P.P.N U x c x x x h j x d 1 r 1 1 r t r w t t w w w t t t t ; t t p P.P.P.P.P.P.P.P.P.P.P.P.P.P.P.P.",
"P.P.P.P.P.P.P.P.P.P.P.P.P.P.P.P.P.P.N I h h j h j h h d 1 t 1 r r t : w t w w r t t t t t u P.P.P.P.P.P.P.P.P.P.P.P.P.P.P.P.P.P.",
"P.P.P.P.P.P.P.P.P.P.P.P.P.P.P.P.P.P.P.P.c c j j h h h h p : r r t r r w r w w w t t y p P.P.P.P.P.P.P.P.P.P.P.P.P.P.P.P.P.P.P.P.",
"P.P.P.P.P.P.P.P.P.P.P.P.P.P.P.P.P.P.P.P.P.P.P.N j j h h x p r t 4 t w w w y y y i P.P.P.P.P.P.P.P.P.P.P.P.P.P.P.P.P.P.P.P.P.P.P.",
"P.P.P.P.P.P.P.P.P.P.P.P.P.P.P.P.P.P.P.P.P.P.P.P.P.P.P.N c c s r r y u u s P.P.P.P.P.P.P.P.P.P.P.P.P.P.P.P.P.P.P.P.P.P.P.P.P.P.P."
};
