/* XPM */
static char *_e3c0fad05064658a9e47190cd4f89ac[] = {
/* columns rows colors chars-per-pixel */
"16 16 180 2 ",
"   c #003180",
".  c #053A87",
"X  c #00398D",
"o  c #053D8D",
"O  c #023F90",
"+  c #0C408C",
"@  c #064393",
"#  c #014297",
"$  c #024296",
"%  c #064495",
"&  c #0E4997",
"*  c #004299",
"=  c #00429A",
"-  c #02459D",
";  c #06469D",
":  c #0F4D9F",
">  c #104693",
",  c #134A97",
"<  c #174B94",
"1  c #144B97",
"2  c #144C97",
"3  c #124D9A",
"4  c #134D9A",
"5  c #124C9B",
"6  c #174F9A",
"7  c #124E9C",
"8  c #114E9E",
"9  c #104E9F",
"0  c #124F9E",
"q  c #134F9E",
"w  c #15509E",
"e  c #1D529B",
"r  c #25559A",
"t  c #29579A",
"y  c #084BA0",
"u  c #0E4FA1",
"i  c #0D4FA2",
"p  c #104FA0",
"a  c #0E50A3",
"s  c #0B50A4",
"d  c #0C51A4",
"f  c #0D51A4",
"g  c #0F53A5",
"h  c #1050A0",
"j  c #1050A1",
"k  c #1050A3",
"l  c #1051A3",
"z  c #1151A3",
"x  c #1250A2",
"c  c #1252A3",
"v  c #1451A2",
"b  c #1152A4",
"n  c #1053A4",
"m  c #1153A6",
"M  c #1252A7",
"N  c #1656A9",
"B  c #0B56BD",
"V  c #145AB6",
"C  c #155CBA",
"Z  c #145ABD",
"A  c #185EBC",
"S  c #185FBD",
"D  c #2E5DA0",
"F  c #1A61BC",
"G  c #1B60BE",
"H  c #1A62BE",
"J  c #3662A2",
"K  c #3364A7",
"L  c #3664A5",
"P  c #3767A8",
"I  c #416DAE",
"U  c #4A72AC",
"Y  c #4A75AF",
"T  c #517CB5",
"R  c #135CC8",
"E  c #185FC9",
"W  c #1761C0",
"Q  c #1B62C0",
"!  c #1E65C2",
"~  c #1C63C5",
"^  c #1F64C5",
"/  c #1E65C7",
"(  c #1760CA",
")  c #1A62CB",
"_  c #1B63CB",
"`  c #1D63CA",
"'  c #1C64C8",
"]  c #1F65C9",
"[  c #1861CD",
"{  c #1B63CD",
"}  c #1D64CF",
"|  c #2166C4",
" . c #2368C7",
".. c #2267CA",
"X. c #2166CC",
"o. c #276BCA",
"O. c #266ACE",
"+. c #276BCE",
"@. c #276BCF",
"#. c #296BCC",
"$. c #286BCF",
"%. c #286CCE",
"&. c #296CCF",
"*. c #2E6ECC",
"=. c #306FCB",
"-. c #2166D1",
";. c #2368D3",
":. c #256AD5",
">. c #296DD0",
",. c #286CD1",
"<. c #2A6DD0",
"1. c #2A6ED2",
"2. c #2A6ED3",
"3. c #2C6ED0",
"4. c #2D6FD0",
"5. c #2C6FD3",
"6. c #2C6FD4",
"7. c #2D6FD5",
"8. c #2E6FD5",
"9. c #2469D8",
"0. c #2E70D4",
"q. c #2E70D5",
"w. c #2F70D6",
"e. c #2E70D8",
"r. c #2F71D8",
"t. c #2E71DA",
"y. c #2F72DB",
"u. c #3071D7",
"i. c #3172D8",
"p. c #3072DA",
"a. c #3273DA",
"s. c #3273DB",
"d. c #3374DB",
"f. c #3574D8",
"g. c #3575DB",
"h. c #3576DC",
"j. c #3777DD",
"k. c #3877DC",
"l. c #3877DD",
"z. c #3B79DB",
"x. c #6F8DB9",
"c. c #4B83D8",
"v. c #588AD5",
"b. c #7095C6",
"n. c #7A97C2",
"m. c #7DA5E0",
"M. c #9DAFCD",
"N. c #91AFD8",
"B. c #9BB3D5",
"V. c #9DB4D4",
"C. c #9DB4D5",
"Z. c #9FB5D5",
"A. c #A1B5D2",
"S. c #A3BBD9",
"D. c #92B3E3",
"F. c #B2C3DB",
"G. c #B6C8DF",
"H. c #B2C8E9",
"J. c #B1C8EB",
"K. c #B8CDF0",
"L. c #C0CBDC",
"P. c #C1CBDC",
"I. c #C9D2E0",
"U. c #D5DDE8",
"Y. c #C4D6F0",
"T. c #C6D7F2",
"R. c #CFDEF5",
"E. c #D0DFF8",
"W. c #D2E1F7",
"Q. c #DAE3F0",
"!. c #DCE6F6",
"~. c #D2E2F8",
"^. c #E6EDF7",
"/. c #E9EEF6",
"(. c #F4F6F7",
"). c #FFFFFD",
"_. c #FDFDFE",
"`. c #FDFEFE",
"'. c gray100",
"]. c None",
/* pixels */
"].].].].].j.p.p.7.5.*.].].].].].",
"].].].k.j.s.u.7.5.1.1.+.#.].].].",
"].].j.y.9.:.-.} { ` ) X... .].].",
"].k.y.z.K.T.E.~.W.R.H.=.' ^ | ].",
"].d.y.f.!.).I.P.P.U.).I Z ' Q ].",
"j.p.p.;.c.).M.  . t n.r 5 G G G ",
"p.y.7.5.[ m.).x.+ 1 o 1 2 0 C S ",
"w.7.1.,.1.E J.).J > e 6 3 3 l V ",
"7.2.1.$.+.` Y.(.D 1 & % 5 5 p b ",
"7.$.+.%.R D.).U X @ P T p p i a ",
"5.+.%.E v.).F.L Y K G./.: a a b ",
"].+.} *.^.).).).).).).Q.a a a ].",
"].#.' #.N.A.V.V.V.B.S.b.; g g ].",
"].]. .~ B ; @ # # * * - a g ].].",
"].].].| | G N w v l m g m ].].].",
"].].].].].H S b l l m ].].].].]."
};
