/* XPM */
static char *bitcoin32[] = {
/* columns rows colors chars-per-pixel */
"32 32 181 2 ",
"   c #0E336A",
".  c #103164",
"X  c #133769",
"o  c #0C3974",
"O  c #0F3F7F",
"+  c #143B72",
"@  c #153F7A",
"#  c #1C4175",
"$  c #16417C",
"%  c #1A437C",
"&  c #2D4463",
"*  c #0C3E83",
"=  c #0D4284",
"-  c #0D458B",
";  c #114486",
":  c #1B4581",
">  c #1B4B87",
",  c #12468A",
"<  c #164B8F",
"1  c #194B8C",
"2  c #0D4790",
"3  c #0E4A93",
"4  c #0E4D9B",
"5  c #154C96",
"6  c #1B4D93",
"7  c #144E9B",
"8  c #1A4E99",
"9  c #1D5094",
"0  c #12519D",
"q  c #1B529A",
"w  c #2A4F82",
"e  c #27568E",
"r  c #29568F",
"t  c #2E598D",
"y  c #3E5F8C",
"u  c #33609B",
"i  c #0E4FA2",
"p  c #114EA0",
"a  c #0F50A1",
"s  c #1252A2",
"d  c #1B54A2",
"f  c #1958A5",
"g  c #1556AB",
"h  c #1957AA",
"j  c #1B5BAD",
"k  c #165AB2",
"l  c #1B5EB4",
"z  c #2A5DA2",
"x  c #245CAB",
"c  c #295FAF",
"v  c #255FB2",
"b  c #1F61B7",
"n  c #1D61BC",
"m  c #2E62AC",
"M  c #3866A2",
"N  c #3566AC",
"B  c #3B6AAC",
"V  c #2361B5",
"C  c #2B62B5",
"Z  c #2F6AB6",
"A  c #2364BD",
"S  c #2C65BB",
"D  c #2668BF",
"F  c #3064B0",
"G  c #3C6CB4",
"H  c #3468BC",
"J  c #3A6BBA",
"K  c #3570BE",
"L  c #4D6A94",
"P  c #41699B",
"I  c #4A6A99",
"U  c #54749E",
"Y  c #65758E",
"T  c #617695",
"R  c #466FA3",
"E  c #5375A1",
"W  c #5378AC",
"Q  c #4773B1",
"!  c #4A76B3",
"~  c #4271BD",
"^  c #4E7BBF",
"/  c #527CB5",
"(  c #517BBC",
")  c #1E64C3",
"_  c #2366C4",
"`  c #2669C6",
"'  c #2A69C4",
"]  c #266ACC",
"[  c #2A6CCC",
"{  c #346BC4",
"}  c #346FCC",
"|  c #3573CB",
" . c #276CD1",
".. c #2A6ED2",
"X. c #306FD0",
"o. c #2E70D5",
"O. c #2E71D9",
"+. c #3272D6",
"@. c #3874D4",
"#. c #3274DB",
"$. c #3976D9",
"%. c #3A78DA",
"&. c #497ECA",
"*. c #4A7DD0",
"=. c #5C83BC",
"-. c #6A81A3",
";. c #7B8CA6",
":. c #778CA9",
">. c #6787B0",
",. c #6085BA",
"<. c #6F8FB8",
"1. c #7090B7",
"2. c #7492B9",
"3. c #7A96BD",
"4. c #5281C7",
"5. c #5C84C1",
"6. c #548BCE",
"7. c #568DD0",
"8. c #5387DB",
"9. c #6389C7",
"0. c #6F94C3",
"q. c #7394C4",
"w. c #769BC8",
"e. c #789CCA",
"r. c #719AD2",
"t. c #7D9ED3",
"y. c #739BD9",
"u. c #7CA4DA",
"i. c #4684E1",
"p. c #4B88E5",
"a. c #5795E2",
"s. c #5A93E2",
"d. c #669EF1",
"f. c #689FF2",
"g. c #6CA2F8",
"h. c #A0ACBC",
"j. c #8EA3C0",
"k. c #80A0CF",
"l. c #83A3D4",
"z. c #82A8D9",
"x. c #88A8D9",
"c. c #A2B9D9",
"v. c #80A7E0",
"b. c #84AAE1",
"n. c #8CAFE9",
"m. c #8BB1E9",
"M. c #94B8EA",
"N. c #9FBEEA",
"B. c #8FBEF6",
"V. c #A1BEE6",
"C. c #A2BEE9",
"Z. c #93C4FF",
"A. c #9CCAFF",
"S. c #A2C2EB",
"D. c #B1C6E3",
"F. c #BBCDE5",
"G. c #BCD2EF",
"H. c #A4C3F2",
"J. c #A0C4F8",
"K. c #ABCBFA",
"L. c #B1CEF6",
"P. c #B8D5F7",
"I. c #B9D5FA",
"U. c #BCDBFF",
"Y. c #C1DDFF",
"T. c #CEDFF9",
"R. c #C3E3FF",
"E. c #CDE5FF",
"W. c #C6EAFF",
"Q. c #D7E4F5",
"!. c #D0E7FF",
"~. c #D2E9FF",
"^. c #CDF2FF",
"/. c #D2F4FF",
"(. c #DAF6FF",
"). c #E2ECF8",
"_. c #E0F0FF",
"`. c #E3FCFF",
"'. c #ECFFFF",
"]. c #F4FFFF",
"[. c #FDFFFF",
/* pixels */
"[.[.[.[.[.[.[.[.[.'./.A.g.p.%.#.o.#.i.f.A.^.'.].[.[.[.[.[.[.[.[.",
"[.[.[.[.[.[.].].!.x.( J { X.+.O.X.X.[ S N ! l.!.'.].[.[.[.[.[.[.",
"[.[.[.[.[.[.`.n.&.C } @.+.+.#.+.o...X.X.[ S v N b.`.].[.[.[.[.[.",
"[.[.[.[.].~.9.H $.#.#.#.#.o.o.o. .....] ]  . .[ x / ~.].[.[.[.[.",
"[.[.[.].R.^ { $.#.#.#.#.#.O.O.o.O.O.........] ] [ x B R.].[.[.[.",
"[.[.[.!.^ } $.@.{ S ' S C C C F V v V c V v ] _ _ ] V B !.].[.[.",
"[.[.`.9.{ $.$.{ y.H.C.C.C.C.V.V.V.V.V.V.S.u.C ] _ ) _ x / `.[.[.",
"].].n.J %.#.o.8.`.].].].].].].'.].].].'.].`.4.v _ _ ) D q u.'.[.",
"].!.~ @.+.#.+.*.(.].].].].].].'.].].].].].].( 7 ` _ ) ) A z E.].",
"'.x.{ #.#.+.#.C t.].].[.h.Y -.-.-.-.T F.].].,.* j _ ) ) ) d w.'.",
"~.( } #.O.#.#.} m J.].[.Q.& X @ @ @   q.Y.I.! - 7 h A ) n k M ^.",
"A.J @.#.#.+.o.o.[ G E.].].D.# 9 6 6 6 > % : 1 6 5 7 g n n b q Z.",
"g.{ +.#.+.o.o...X.S 5.`.].].3.+ 1 6 6 6 9 1 6 5 7 7 p g n n s s.",
"p.X.+.+.+.o..... .[ c u.].].`.L @ 9 5 5 5 5 7 7 7 7 7 p g n k | ",
"%.+.+.o.o.o...]  .[ ' m L.].].T.w 1 6 6 5 7 5 7 7 7 7 0 4 g k n ",
"+.X.o.o. . ..... .[  .Z I _.[.].e.* 8 5 8 5 7 5 7 7 0 0 0 a g k ",
"+.X.X.........] ] ..] v >.'.].].,.* 8 8 7 5 7 7 7 0 7 p s s a s ",
"$. ...X. ...]  .] ] S B ~.].].c.@ 8 8 8 5 8 q 8 7 0 p 7 a p a h ",
"i.[  . . . .] ] ] ' z K.].].E.w 1 8 5 6 < * * = 7 7 p s s s 4 Z ",
"d.S X.X.] [ ] ] [ x l.].].].I : 6 9 9 < u n.M.r.< s s a 4 0 - 6.",
"Z.F ' ..] ] ] [ V ^ '.].].:.. : * * * o y '.'.I., s a a a 0 ; B.",
"/.Q S  .] ]  .S M R.[.[.).;.2.0.q.q.0.<.j.'.[.G., a a a a 7 t ^.",
"'.t.V ..] ] ] c N.].].[.[.[.].].].].].[.].[.].G., s a a s = 1.'.",
"[.!.N ` ] ] n &.`.].].[.].].[.[.].].].].].].].P.; s a a a > E.].",
"[.'.v.z [ ] ) K W.'.'.].'.].].].].'.].].].`.'.z.- s a f = w.].[.",
"[.[.`./ x ` _ v B W U U U U U U U U E U E E R > a a s - M `.].[.",
"[.[.].~.B l _ _ V d 2 ; ; ; ; ; , - - - - - 3 4 a a 3 t E.[.[.[.",
"[.[.[.].R.B x _ _ _ n s p s s s s s g s s a a a f - e U.].[.[.[.",
"[.[.[.[.].~./ d n ) ) n a 0 0 0 0 a a 4 a s s 0 = y E.].].[.[.[.",
"[.[.[.[.[.].`.z.z q j V l s a 0 s a 0 0 0 5 - > e.`.[.[.[.[.[.[.",
"[.[.[.[.[.[.].].!.w.M q d g a a a 4 4 - , t 1.E.].].[.[.[.[.[.[.",
"[.[.[.[.[.[.[.[.].'./.Z.a.| b s a f Z 7.B.^.'.].[.[.[.[.[.[.[.[."
};
