/* XPM */
static char *bitcoin64[] = {
/* columns rows colors chars-per-pixel */
"64 64 256 2 ",
"   c #243958",
".  c #113361",
"X  c #1A3967",
"o  c #163B6E",
"O  c #1C3D6E",
"+  c #0F3E7D",
"@  c #163C73",
"#  c #193E72",
"$  c #143D7A",
"%  c #263E60",
"&  c #1C4275",
"*  c #14407D",
"=  c #1D457B",
"-  c #224475",
";  c #20487C",
":  c #2B4D7B",
">  c #0E3F81",
",  c #123F80",
"<  c #0D4184",
"1  c #0C448A",
"2  c #124483",
"3  c #1A4686",
"4  c #15468A",
"5  c #18478B",
"6  c #15498C",
"7  c #1B4B8D",
"8  c #1E4B86",
"9  c #0D4790",
"0  c #0C4A94",
"q  c #0E4D9C",
"w  c #164C96",
"e  c #1A4C92",
"r  c #144E9B",
"t  c #1A4E99",
"y  c #0F519F",
"u  c #1D5195",
"i  c #13519E",
"p  c #1A529B",
"a  c #214A80",
"s  c #234D8A",
"d  c #235087",
"f  c #2F5181",
"g  c #2B568A",
"h  c #305687",
"j  c #3D5981",
"k  c #305589",
"l  c #214E91",
"z  c #295792",
"x  c #2D5A95",
"c  c #21569E",
"v  c #28579B",
"b  c #2D5D9C",
"n  c #235496",
"m  c #375C90",
"M  c #0D4FA3",
"N  c #114FA1",
"B  c #0F50A2",
"V  c #1251A2",
"C  c #1B55A2",
"Z  c #1F58A7",
"A  c #1456AC",
"S  c #1956AC",
"D  c #1759AD",
"F  c #1D5AAA",
"G  c #155AB3",
"H  c #1C5DB4",
"J  c #165EBC",
"K  c #195EBA",
"L  c #2057A7",
"P  c #255AA5",
"I  c #2A5EA7",
"U  c #245CAC",
"Y  c #2A5EAA",
"T  c #255FB2",
"R  c #285FB2",
"E  c #1E60B6",
"W  c #1760BE",
"Q  c #1A61BD",
"!  c #2F61A4",
"~  c #2860AD",
"^  c #3564A1",
"/  c #3768A0",
"(  c #3968A0",
")  c #3263AB",
"_  c #3669AB",
"`  c #3C6AAE",
"'  c #2B63B3",
"]  c #2364BC",
"[  c #2B65BC",
"{  c #2B68BD",
"}  c #2B69B4",
"|  c #3166B2",
" . c #3768B5",
".. c #3C6CB3",
"X. c #3266BC",
"o. c #3469BD",
"O. c #3A6CBB",
"+. c #4B5F80",
"@. c #466793",
"#. c #42679B",
"$. c #456B9A",
"%. c #496B9A",
"&. c #547098",
"*. c #58749B",
"=. c #5E7B9D",
"-. c #446FAD",
";. c #4C72A1",
":. c #4D75AC",
">. c #5C79A1",
",. c #5A7CA9",
"<. c #406FB5",
"1. c #4273B4",
"2. c #4573BC",
"3. c #4873B8",
"4. c #4C79BA",
"5. c #5079B7",
"6. c #597FB5",
"7. c #517ABB",
"8. c #5B7FB9",
"9. c #1D63C2",
"0. c #2166C5",
"q. c #2E67C0",
"w. c #2668C5",
"e. c #2B6AC3",
"r. c #2467CA",
"t. c #266ACC",
"y. c #296CCE",
"u. c #336BC3",
"i. c #316ECB",
"p. c #2F72CA",
"a. c #3772CF",
"s. c #3972CD",
"d. c #276CD1",
"f. c #2A6ED2",
"g. c #306FD4",
"h. c #2E70D6",
"j. c #2F72D8",
"k. c #3171D6",
"l. c #3975D5",
"z. c #3273DB",
"x. c #3A77DA",
"c. c #3A79DC",
"v. c #447EC4",
"b. c #4C7BC3",
"n. c #527FC0",
"m. c #5E80AD",
"M. c #5780B4",
"N. c #5A81B6",
"B. c #5580B8",
"V. c #5D82BB",
"C. c #6783AB",
"Z. c #6489B6",
"A. c #698AB7",
"S. c #678BBD",
"D. c #688EBF",
"F. c #7797BE",
"G. c #7C99BC",
"H. c #7B93B5",
"J. c #4F80C5",
"K. c #4F80CD",
"L. c #5281C2",
"P. c #5A86CC",
"I. c #5784C7",
"U. c #4887D6",
"Y. c #6389C3",
"T. c #658FCB",
"R. c #6490CD",
"E. c #6992CC",
"W. c #7797C0",
"Q. c #7B9AC3",
"!. c #759BCB",
"~. c #799AC9",
"^. c #679DDD",
"/. c #6C9ADC",
"(. c #6C94D1",
"). c #769EDC",
"_. c #739AD5",
"`. c #4785E2",
"'. c #4884E4",
"]. c #5A95EE",
"[. c #5E97F1",
"{. c #6696E0",
"}. c #6E9EE0",
"|. c #6BA3ED",
" X c #74A3EB",
".X c #76ADFD",
"XX c #7AAEFF",
"oX c #819FC5",
"OX c #88A2C5",
"+X c #81A2CD",
"@X c #8EA6CA",
"#X c #8EABCD",
"$X c #91A6C7",
"%X c #91A9CD",
"&X c #83A4D2",
"*X c #85A9D4",
"=X c #8CA9D3",
"-X c #85AADB",
";X c #8DADDC",
":X c #93AFD6",
">X c #8EB1DB",
",X c #9FB6D6",
"<X c #91B4DE",
"1X c #9FB9DD",
"2X c #A1B1CB",
"3X c #A0B7D7",
"4X c #A1B9DD",
"5X c #8AAEE2",
"6X c #8AB3E5",
"7X c #89B2E8",
"8X c #95B5E3",
"9X c #96B8E5",
"0X c #9CBAE6",
"qX c #91B6EB",
"wX c #94B9EC",
"eX c #9CBDEC",
"rX c #94BCF4",
"tX c #9ABEF3",
"yX c #A1BBE2",
"uX c #B7C6DB",
"iX c #9EC2F4",
"pX c #93C3FD",
"aX c #9DCAFF",
"sX c #ACC6E9",
"dX c #A6C3EA",
"fX c #BDCEEA",
"gX c #B4C5E1",
"hX c #BCD3EE",
"jX c #A1C5F7",
"kX c #A2C5FA",
"lX c #A8C9FE",
"zX c #B6D0F5",
"xX c #BCD6F3",
"cX c #BFD8F7",
"vX c #B5D1F9",
"bX c #BDD7F9",
"nX c #BBDCFF",
"mX c #BFE5FF",
"MX c #C2CDDD",
"NX c #C4D1E2",
"BX c #D6DEE9",
"VX c #C3DBFE",
"CX c #C5E2FF",
"ZX c #CCE4FF",
"AX c #C2E8FF",
"SX c #D3E4FC",
"DX c #D3EBFF",
"FX c #DAECFF",
"GX c #D5F2FF",
"HX c #DCF3FF",
"JX c #DEFBFF",
"KX c #E2F3FF",
"LX c #E5FEFF",
"PX c #ECFFFF",
"IX c #F5FFFF",
"UX c #FEFFFF",
/* pixels */
"UXUXUXUXUXUXUXUXUXUXUXUXUXUXUXUXUXUXUXUXUXIXIXPXCXaXXX[.'.x.z.k.k.l.x.`.]..XaXAXLXPXUXUXUXUXUXUXUXUXUXUXUXUXUXUXUXUXUXUXUXUXUXUX",
"UXUXUXUXUXUXUXUXUXUXUXUXUXUXUXUXUXUXUXPXPXVX;XY.3.O.u.i.g.g.g.z.k.y.g.y.q.[ | <.V.-XVXPXPXIXUXUXUXUXUXUXUXUXUXUXUXUXUXUXUXUXUXUX",
"UXUXUXUXUXUXUXUXUXUXUXUXUXUXUXUXUXPXHXtXP.O.q.i.a.l.l.l.h.z.h.h.h.h.k.f.f.i.i.e.{ T | L.wXHXIXIXUXUXUXUXUXUXUXUXUXUXUXUXUXUXUXUX",
"UXUXUXUXUXUXUXUXUXUXUXUXUXUXIXIXHX8X7.O.s.z.x.z.z.z.h.h.z.z.g.h.h.h.h.f.f.f.f.g.f.f.y.w.Y -.;XKXPXIXUXUXUXUXUXUXUXUXUXUXUXUXUXUX",
"UXUXUXUXUXUXUXUXUXUXUXUXUXIXPXjXb.q.s.x.z.z.j.z.z.z.z.z.g.h.h.h.h.h.h.f.f.f.f.f.f.y.y.y.i.[ Y <.eXPXUXUXUXUXUXUXUXUXUXUXUXUXUXUX",
"UXUXUXUXUXUXUXUXUXUXUXUXIXDXT. .z.c.z.z.z.z.z.z.z.h.h.k.h.h.h.h.f.h.f.f.f.f.f.y.f.t.d.y.y.d.d.w.~ V.ZXIXIXUXUXUXUXUXUXUXUXUXUXUX",
"UXUXUXUXUXUXUXUXUXUXUXPXlX2.u.l.z.z.z.z.z.z.z.j.h.z.h.z.h.g.h.h.f.f.f.f.d.d.y.y.d.y.f.d.t.t.t.y.e.R _ kXPXUXUXUXUXUXUXUXUXUXUXUX",
"UXUXUXUXUXUXUXUXUXUXPX;Xo.l.x.x.z.z.z.z.z.j.z.j.h.h.h.h.g.h.h.h.f.f.f.f.y.f.d.y.y.t.y.t.t.t.t.t.y.y.] P &XPXUXUXUXUXUXUXUXUXUXUX",
"UXUXUXUXUXUXUXUXIXPX).X.l.x.z.z.z.z.z.z.z.z.j.j.k.h.h.h.h.h.f.f.j.f.j.d.y.y.t.f.y.t.d.t.t.t.t.d.r.r.t.w.Z E.PXIXUXUXUXUXUXUXUXUX",
"UXUXUXUXUXUXUXUXPX!.u.x.z.z.z.x.z.z.z.z.z.z.j.j.h.h.h.h.j.f.f.h.f.f.d.d.g.d.f.t.y.t.d.t.t.t.r.r.r.t.r.0.r.Z S.PXUXUXUXUXUXUXUXUX",
"UXUXUXUXUXUXUXPX).q.x.x.z.z.z.z.z.z.z.z.j.z.z.z.h.h.h.j.f.j.f.h.f.f.f.f.d.d.d.d.f.d.y.t.t.r.r.r.r.r.r.0.0.e.Z E.PXUXUXUXUXUXUXUX",
"UXUXUXUXUXUXPX;XX.x.z.z.z.x.z.z.l.s.i.u.e.u.e.u.u.u.e.e.e.0.X.{ { { { { [ { [ { } ] { w.y.t.r.r.t.r.0.0.0.0.w.C &XPXIXUXUXUXUXUX",
"UXUXUXUXUXPXlX .x.z.z.z.z.z.z.x.o.2.I.V.V.V.V.V.8.8.8.V.8.8.8.6.B.M.M.N.6.8.6.6.6.6.1.Y e.r.r.r.0.0.r.0.0.0.9.w.P tXIXUXUXUXUXUX",
"UXUXUXUXUXZX2.l.x.z.z.x.z.z.z.e./.GXPXPXPXPXPXPXPXPXPXPXPXKXPXPXPXPXPXPXPXPXPXPXPXLXJX6X' w.r.r.r.0.0.0.0.9.r.9.] I ZXIXUXUXUXUX",
"UXUXUXUXPXT.u.c.z.z.z.z.z.z.g.b.KXIXIXUXIXIXUXUXIXUXUXIXIXUXUXIXUXIXUXIXUXUXIXUXUXIXIXPXR.T r.r.r.r.0.0.0.0.0.9.] L 6.PXUXUXUXUX",
"UXUXUXPXiX..x.z.z.z.z.z.z.x.y. XPXUXUXUXUXUXUXUXUXUXUXUXUXUXUXUXUXUXUXUXUXUXUXUXUXUXUXIX8X5 e.0.9.9.0.0.0.0.9.9.9.{ c wXPXUXUXUX",
"UXUXUXFXb.l.z.z.z.z.z.z.z.z.i.{.IXUXUXUXUXUXUXUXUXUXUXUXUXUXUXUXUXUXUXUXUXUXUXUXUXUXUXIX0X+ L w.r.0.0.9.0.0.9.9.9.9.H _ HXUXUXUX",
"UXUXIX<Xu.x.z.z.z.z.z.z.z.g.g.u.vXIXUXUXUXUXUXUXUXUXIXIXIXIXIXUXIXIXIXIXIXIXUXUXUXUXUXIXyX$ e S 0.9.0.9.9.0.0.9.9.9.9.C &XIXUXUX",
"UXUXHX5.s.z.z.z.z.z.j.z.z.z.g.u.7.FXUXUXUXUXUXUXMX2X4X4X,X4X4X1X,X,XyXyX,X,XuXUXUXUXUXUXyX$ l r D ] 0.9.9.9.9.9.Q 9.W H / GXIXUX",
"UXPXrXX.x.z.z.z.z.g.z.z.h.h.h.z.X._.PXUXUXUXUXUXNX  X @ X o o o o o @ @ @ . +.IXIXUXIXUX0X$ e t q D w.9.9.9.9.9.9.W 9.K p 5XPXUX",
"UXPXP.g.x.z.z.z.z.z.j.z.h.h.j.j.l.' eXIXUXUXUXUXIX2XX s s 8 7 7 7 7 l s l , *.IXIXUXIXPXeX$ e w r r S ] 9.9.9.9.9.Q W Q G 1.PXUX",
"UXVXu.z.z.z.z.z.z.z.j.j.j.f.j.j.f.u.-.CXIXUXUXUXUXIXC.@ 7 5 7 7 5 e e 5 l , m =XOX$X$X=XV.3 e t w r r S ] 9.Q 9.W W W W W c xXPX",
"PX;Xq.z.z.j.z.z.h.h.h.z.h.h.j.f.h.y.{ L.KXUXUXUXUXUXFX+.$ e 7 5 e 5 5 t e e , $ , $ $ $ > w w w w w r r A Q 9.Q W Q W W 9.i +XPX",
"LXY.i.z.z.j.z.j.z.h.h.h.h.h.j.f.d.h.h.' &XPXIXUXUXUXIXfX& s 7 7 5 5 e e e t t t t t t t t w w w r w r r N A ] K W 9.W W W C :.PX",
"AX3.s.z.j.z.h.j.h.k.h.h.j.f.f.f.f.h.d.i.) lXIXUXUXUXUXIXOXo 8 7 w e 5 e w e w w w w w w w t w r r w w r r r A ] W W W W J H b mX",
"aXO.l.z.z.z.h.j.h.h.h.k.f.j.f.f.f.d.f.y.{ <.DXIXUXUXUXIXIX*.$ e 5 e e e e 5 w w w e w w w w w r w w r w r N q S Q W J W J E p pX",
"XXu.l.z.k.j.h.z.h.h.h.h.h.f.f.f.y.f.f.y.y.' Y.LXIXUXUXUXIXSXf 3 e e e e e w w 5 e w w r t r w w r w r r r r N q A E W W J E C |.",
"].e.l.z.z.h.h.k.h.h.h.f.f.f.f.f.f.y.f.t.y.p.~ 5XIXUXUXUXUXUXsX# 7 e e e w w w w w w w w r w w r w r r r w r r r y A E J J K A U.",
"'.i.k.k.k.h.h.h.h.h.f.f.f.f.f.f.y.y.y.d.y.y.y.) vXIXUXUXUXIXIXH.$ t e e 5 w w w w w w w w r w r r r r r r r i i i N A K J K A p.",
"c.k.k.k.j.k.j.j.h.f.d.h.f.f.y.f.d.d.d.d.y.t.t.[ :.HXIXUXUXUXUXKX%., e w w w w w w w r w w w r 9 r r r r N t r N i q q A H G G Q ",
"z.k.h.k.h.f.h.f.d.h.d.f.d.d.f.d.y.d.y.t.t.t.t.y.U (.IXUXUXUXUXIXzX= 5 t w w w w w r w r r w r r r r r r N r i i i q N N A G G K ",
"j.j.h.h.h.h.f.f.h.d.d.f.f.d.y.y.y.y.t.y.t.t.t.t.y.v gXUXUXUXUXUXFXk 5 w w t w w r w r w r w r r r r r r r i r t N N N N M A G J ",
"h.k.h.h.h.f.f.f.f.f.y.d.d.f.y.d.t.y.y.t.r.y.r.y.R 4.KXUXUXUXUXUXVXa 7 t w t t r w r w r r w r r w r i i i i r q N i N N B B A G ",
"k.f.h.j.f.f.h.f.f.d.f.d.y.y.d.y.y.t.t.y.t.y.r.{ ) bXIXUXUXUXUXPXA.$ e w w w w w w r q w r r r r r r r r i i i N i N N B y B M A ",
"x.g.h.j.f.f.h.f.f.y.f.t.y.d.y.t.t.t.r.y.r.r.y.P 8XIXUXUXUXUXIX3X$ e t w w r r w r w r r w r q q i q i i q N q i N N C N y y q D ",
"`.y.h.h.h.f.f.f.d.f.y.d.y.y.t.y.t.t.y.r.y.y.T T.PXUXUXUXUXIXZX: s t w w r w w r w w r r r r r i i i r i i N N i q N N q q i q } ",
"].q.g.d.h.f.y.y.y.y.y.y.t.d.y.y.t.t.t.t.t.[ -.FXIXUXUXUXUXPX%.* w w w w w r w r r r r r i q C i r i N q C N N y B i y B B N 9 v.",
".X[ g.f.f.f.y.f.y.f.d.f.d.t.r.r.t.t.t.r.w.Y vXPXUXUXUXIXIXG.$ u w r w w w r r w w w 4 4 5 4 6 w t i q C q N B i q B y y B i 1 ^.",
"aX| i.f.f.y.y.y.y.d.d.t.d.t.t.d.y.r.t.w.L -XPXIXUXUXUXIXsX& l w w r w r r r r r w n #.@.@.@.#.x w V N q N N B B B B B B B i 2 rX",
"AX..e.f.d.f.y.y.d.t.y.d.t.t.t.r.t.r.y.T V.PXUXUXUXUXUXFXh 4 e w r w w r w r w r 1 7.PXPXPXPXPX-X> V N N i q B y B y B B B r d AX",
"LXV.[ h.f.f.y.y.d.y.y.d.d.t.t.t.r.r.] ` ZXIXUXUXUXUXPX>.* p w r w w t r r r r t 1 6.PXIXUXIXIX=X2 V i N i B B B N N B B M 9 $.LX",
"PX=XR f.y.t.d.t.t.d.t.t.d.t.t.r.0.e.I jXIXUXUXUXUXUX$XO s 7 e 7 l e e e u w 7 u 2 C.IXUXUXIXIX@X< V N N B y y B N B B B A 1 G.PX",
"IXVX) f.d.d.y.y.d.r.t.t.r.t.r.r.y.U ~.PXUXUXUXUXUXuX  - ; = ; & = ; & ; = = & ; X =.UXUXUXUXUX%X< V q B y y B N B B M B B 2 hXPX",
"UXPXn.w.y.d.t.t.d.d.t.r.t.r.t.t.] 4.LXIXUXUXUXUXUXBXNXhXcXcXxXVXxXbXbXbXbXbXbXxXxXZXUXUXUXIXIX%X< S y B y B B M B B M N 0 ( PXUX",
"UXIXwX~ p.y.t.t.t.t.t.t.r.r.r.e.^ VXIXUXUXUXUXUXUXUXUXIXUXIXIXIXIXUXUXIXIXUXUXIXIXIXUXUXUXUXIX%X< V M B B B B B M M M V 1 *XIXUX",
"UXIXHX-.e.y.t.t.t.t.t.t.r.r.r.U 9XPXUXUXUXUXUXUXUXUXUXUXUXUXUXUXUXUXUXUXUXUXUXUXUXUXUXUXUXIXIX#X< B B B B A B B M B B w g GXIXUX",
"UXUXPX-X~ y.t.t.t.r.t.r.r.r.] b.PXIXUXUXUXUXUXUXUXUXUXUXUXUXUXUXUXUXUXUXUXUXUXUXUXUXUXUXUXUXIX#X< B M N B M B M M M V 1 Q.PXUXUX",
"UXUXUXHX<.w.y.t.t.t.r.r.r.r.H }.PXUXUXUXUXUXUXUXUXUXUXUXUXUXUXUXUXUXUXUXUXUXUXUXUXUXUXUXUXIXPX%X1 A N M B B B M M A r z HXUXUXUX",
"UXUXUXIXwXY e.t.r.r.t.r.0.t.9.K.PXUXUXUXUXUXUXUXUXUXUXUXUXUXUXUXUXUXUXUXUXUXUXUXUXUXUXUXUXIXPXZ.1 y B B M M M A M B < >XPXUXUXUX",
"UXUXUXUXPXV.' r.r.r.0.t.0.0.0.U 8XIXPXIXIXIXIXIXIXIXIXIXUXPXIXIXIXIXIXPXIXIXIXIXIXIXIXPXPXPXdX8 r y B B M B M B B 0 ;.PXUXUXUXUX",
"UXUXUXUXIXZX_ e.y.0.0.0.0.9.0.] U n.!.~.W.~.~.~.~.!.W.!.~.~.~.~.W.!.W.!.W.!.!.!.!.!.!.!.!.B.e r V B B B M B B B y d AXUXUXUXUXUX",
"UXUXUXUXUXIXiXP { r.r.0.r.0.0.0.0.T 9 > > > $ , + > > > > > 2 , > < < < < > 1 1 > > < 1 1 1 V B B B M B B M B i 2 9XPXUXUXUXUXUX",
"UXUXUXUXUXUXPX&XF w.0.0.0.r.9.0.0.w.] L t t t u w t t t t t t t p p p t p p i p i i i i V V y B B M B B M M B < G.PXUXUXUXUXUXUX",
"UXUXUXUXUXUXUXPXE.F w.w.0.0.0.9.0.9.9.] S r r r r w r r i q r i i r q N N q N N M y N i M M y B M M B M B A 1 m.PXIXUXUXUXUXUXUX",
"UXUXUXUXUXUXUXIXPXS.C w.0.9.0.9.9.0.9.9.] A q r r r r r i r i N i N C q i B N N B y B V B B B B M M B y A 1 m.LXUXUXUXUXUXUXUXUX",
"UXUXUXUXUXUXUXUXIXPXE.C w.9.r.9.9.9.9.9.9.Q S q r w r r i i r t i q N N i B i i y B B B B B B M A M B A + B.LXIXUXUXUXUXUXUXUXUX",
"UXUXUXUXUXUXUXUXUXIXPX&Xc ] w.9.9.9.9.9.W Q ] D q i i i i i N q i N N N i B y y B y y B B M B B M V r < W.PXIXUXUXUXUXUXUXUXUXUX",
"UXUXUXUXUXUXUXUXUXUXUXPXiX! L ] Q 9.9.W W 9.W W S N q q i i N i N q i B B y y N y B B B M M y B V 1 8 9XPXUXUXUXUXUXUXUXUXUXUXUX",
"UXUXUXUXUXUXUXUXUXUXUXUXPXZXV.p E 9.9.W W 9.W E H D N q i q i N N B y B y y B N B B B V M B B q 2 ;.ZXIXUXUXUXUXUXUXUXUXUXUXUXUX",
"UXUXUXUXUXUXUXUXUXUXUXUXUXIXPXwX_ i T ] Q W W W K K A N C N i i i N q N y M B M A M M M V r 1 x <XPXIXUXUXUXUXUXUXUXUXUXUXUXUXUX",
"UXUXUXUXUXUXUXUXUXUXUXUXUXUXIXPXHX&X/ p D W 9.9.K K K A B N N V y y B B B y B B M A M 0 < g oXHXPXUXUXUXUXUXUXUXUXUXUXUXUXUXUXUX",
"UXUXUXUXUXUXUXUXUXUXUXUXUXUXUXUXUXPXGX6X1.C i C H H H H D V N N B B y B N i r r 1 1 6 / *XHXPXUXUXUXUXUXUXUXUXUXUXUXUXUXUXUXUXUX",
"UXUXUXUXUXUXUXUXUXUXUXUXUXUXUXUXUXUXUXPXPXVX+X:.b p C A D M B B y y q 0 9 1 2 d $.G.xXPXIXUXUXUXUXUXUXUXUXUXUXUXUXUXUXUXUXUXUXUX",
"UXUXUXUXUXUXUXUXUXUXUXUXUXUXUXUXUXUXUXUXUXIXPXLXAXpX|.U.p.] D B B B D } J.^.pXAXLXPXIXIXUXUXUXUXUXUXUXUXUXUXUXUXUXUXUXUXUXUXUXUX"
};
